<svg width="48" height="48" viewBox="0 0 48 48" fill="none" xmlns="http://www.w3.org/2000/svg">
<path d="M12 0.5H36C42.3513 0.5 47.5 5.64873 47.5 12V36C47.5 42.3513 42.3513 47.5 36 47.5H12C5.64873 47.5 0.5 42.3513 0.5 36V12C0.5 5.64873 5.64873 0.5 12 0.5Z" fill="#F4FAFF"/>
<path d="M12 0.5H36C42.3513 0.5 47.5 5.64873 47.5 12V36C47.5 42.3513 42.3513 47.5 36 47.5H12C5.64873 47.5 0.5 42.3513 0.5 36V12C0.5 5.64873 5.64873 0.5 12 0.5Z" stroke="#D2EDFE"/>
<path d="M30 14H27C25.6739 14 24.4021 14.5268 23.4645 15.4645C22.5268 16.4021 22 17.6739 22 19V22H19V26H22V34H26V26H29L30 22H26V19C26 18.7348 26.1054 18.4804 26.2929 18.2929C26.4804 18.1054 26.7348 18 27 18H30V14Z" fill="#008BF9"/>
</svg>
