<svg width="24" height="24" viewBox="0 0 24 24" fill="none" xmlns="http://www.w3.org/2000/svg">
<path d="M17 2C19.7614 2 22 4.23858 22 7V17C22 19.7614 19.7614 22 17 22H7C4.23858 22 2 19.7614 2 17V7C2 4.23858 4.23858 2 7 2H17ZM12.6299 8C11.7978 7.87664 10.9479 8.01888 10.2012 8.40625C9.45455 8.79366 8.84898 9.40692 8.4707 10.1582C8.09244 10.9097 7.96009 11.7621 8.09375 12.5928C8.22743 13.4233 8.62005 14.1903 9.21484 14.7852C9.80977 15.3801 10.5775 15.7726 11.4082 15.9062C12.2387 16.0398 13.0904 15.9085 13.8418 15.5303C14.5932 15.1521 15.2062 14.5464 15.5938 13.7998C15.9812 13.053 16.1234 12.2024 16 11.3701C15.8741 10.5214 15.4787 9.73566 14.8721 9.12891C14.2652 8.52206 13.4788 8.12588 12.6299 8ZM17.5098 5.83789C17.1435 5.83801 16.8468 6.13474 16.8467 6.50098C16.8467 6.86732 17.1434 7.16492 17.5098 7.16504C17.8762 7.16504 18.1738 6.8674 18.1738 6.50098C18.1737 6.13466 17.8761 5.83789 17.5098 5.83789Z" fill="#008BF9"/>
</svg>
