<svg width="48" height="48" viewBox="0 0 48 48" fill="none" xmlns="http://www.w3.org/2000/svg">
<path d="M12 0.5H36C42.3513 0.5 47.5 5.64873 47.5 12V36C47.5 42.3513 42.3513 47.5 36 47.5H12C5.64873 47.5 0.5 42.3513 0.5 36V12C0.5 5.64873 5.64873 0.5 12 0.5Z" fill="#F4FAFF"/>
<path d="M12 0.5H36C42.3513 0.5 47.5 5.64873 47.5 12V36C47.5 42.3513 42.3513 47.5 36 47.5H12C5.64873 47.5 0.5 42.3513 0.5 36V12C0.5 5.64873 5.64873 0.5 12 0.5Z" stroke="#D2EDFE"/>
<path d="M29 14C31.7614 14 34 16.2386 34 19V29C34 31.7614 31.7614 34 29 34H19C16.2386 34 14 31.7614 14 29V19C14 16.2386 16.2386 14 19 14H29ZM24.6299 20C23.7978 19.8766 22.9479 20.0189 22.2012 20.4062C21.4545 20.7937 20.849 21.4069 20.4707 22.1582C20.0924 22.9097 19.9601 23.7621 20.0938 24.5928C20.2274 25.4233 20.6201 26.1903 21.2148 26.7852C21.8098 27.3801 22.5775 27.7726 23.4082 27.9062C24.2387 28.0398 25.0904 27.9085 25.8418 27.5303C26.5932 27.1521 27.2062 26.5464 27.5938 25.7998C27.9812 25.053 28.1234 24.2024 28 23.3701C27.8741 22.5214 27.4787 21.7357 26.8721 21.1289C26.2652 20.5221 25.4788 20.1259 24.6299 20ZM29.5098 17.8379C29.1435 17.838 28.8468 18.1347 28.8467 18.501C28.8467 18.8673 29.1434 19.1649 29.5098 19.165C29.8762 19.165 30.1738 18.8674 30.1738 18.501C30.1737 18.1347 29.8761 17.8379 29.5098 17.8379Z" fill="#008BF9"/>
</svg>
