<svg width="48" height="48" viewBox="0 0 48 48" fill="none" xmlns="http://www.w3.org/2000/svg">
<path d="M12 0.5H36C42.3513 0.5 47.5 5.64873 47.5 12V36C47.5 42.3513 42.3513 47.5 36 47.5H12C5.64873 47.5 0.5 42.3513 0.5 36V12C0.5 5.64873 5.64873 0.5 12 0.5Z" fill="#F4FAFF"/>
<path d="M12 0.5H36C42.3513 0.5 47.5 5.64873 47.5 12V36C47.5 42.3513 42.3513 47.5 36 47.5H12C5.64873 47.5 0.5 42.3513 0.5 36V12C0.5 5.64873 5.64873 0.5 12 0.5Z" stroke="#D2EDFE"/>
<path d="M28 20C29.5913 20 31.1174 20.6321 32.2426 21.7574C33.3679 22.8826 34 24.4087 34 26V33H30V26C30 25.4696 29.7893 24.9609 29.4142 24.5858C29.0391 24.2107 28.5304 24 28 24C27.4696 24 26.9609 24.2107 26.5858 24.5858C26.2107 24.9609 26 25.4696 26 26V33H22V26C22 24.4087 22.6321 22.8826 23.7574 21.7574C24.8826 20.6321 26.4087 20 28 20Z" fill="#008BF9"/>
<path d="M18 21H14V33H18V21Z" fill="#008BF9"/>
<path d="M16 18C17.1046 18 18 17.1046 18 16C18 14.8954 17.1046 14 16 14C14.8954 14 14 14.8954 14 16C14 17.1046 14.8954 18 16 18Z" fill="#008BF9"/>
</svg>
