<svg width="24" height="24" viewBox="0 0 24 24" fill="none" xmlns="http://www.w3.org/2000/svg">
<path d="M11.9995 1.5C14.2539 1.5 16.4162 2.3952 18.0103 3.98926C19.6043 5.58332 20.4995 7.74566 20.4995 10C20.4995 12.6651 19.0304 15.324 17.395 17.4727C15.7481 19.6364 13.8698 21.3639 12.9272 22.1777C12.9188 22.185 12.9098 22.1915 12.9009 22.1982C12.6734 22.3693 12.4027 22.4723 12.1206 22.4951L11.9995 22.5C11.6743 22.5 11.3581 22.3937 11.0981 22.1982C11.0892 22.1915 11.0802 22.185 11.0718 22.1777C10.1292 21.3639 8.25088 19.6364 6.604 17.4727C4.96866 15.324 3.49951 12.6651 3.49951 10C3.49951 7.74566 4.39471 5.58332 5.98877 3.98926C7.58283 2.3952 9.74517 1.5 11.9995 1.5ZM11.9995 6.5C10.0665 6.5 8.49951 8.067 8.49951 10C8.49951 11.933 10.0665 13.5 11.9995 13.5C13.9325 13.5 15.4995 11.933 15.4995 10C15.4995 8.067 13.9325 6.5 11.9995 6.5Z" fill="#3F444D"/>
</svg>
