<svg width="24" height="24" viewBox="0 0 24 24" fill="none" xmlns="http://www.w3.org/2000/svg">
<path d="M12.0025 1.99902C13.5408 1.99956 15.0582 2.35494 16.4368 3.03753C17.8153 3.72012 19.0179 4.71152 19.9508 5.93462C20.8837 7.15771 21.522 8.57954 21.8158 10.0895C22.1097 11.5995 22.0513 13.1569 21.6451 14.6406C21.2389 16.1243 20.496 17.4943 19.474 18.6441C18.4521 19.7938 17.1787 20.6923 15.7529 21.2697C14.327 21.8471 12.7872 22.0878 11.2532 21.9731C9.71922 21.8584 8.23235 21.3914 6.90827 20.6083L2.82412 21.9685C2.71409 22.005 2.59608 22.0101 2.48327 21.9834C2.37046 21.9567 2.2673 21.8991 2.18533 21.8172C2.10336 21.7352 2.0458 21.632 2.01908 21.5192C1.99236 21.4064 1.99755 21.2884 2.03405 21.1784L3.39543 17.0955C2.49616 15.5768 2.01484 13.8471 2.00034 12.0821C1.98584 10.3172 2.43868 8.57987 3.31287 7.04657C4.18707 5.51327 5.45147 4.23863 6.97767 3.35211C8.50388 2.46558 10.2375 1.99875 12.0025 1.99902ZM8.51967 7.00451C8.39248 7.00879 8.26775 7.04075 8.15418 7.09819C8.04062 7.15562 7.94094 7.23713 7.86211 7.33704C7.63709 7.60081 7.00203 8.24338 7.00203 9.546C7.00203 10.8511 7.88336 12.1137 8.00712 12.2913C8.12963 12.4638 9.74229 15.1415 12.2113 16.2917C12.6697 16.5042 13.1364 16.69 13.6114 16.8492C14.2015 17.0492 14.739 17.023 15.1641 16.9555C15.6379 16.8805 16.6192 16.3142 16.8255 15.6928C17.0292 15.0765 17.0292 14.5452 16.9667 14.434C16.9055 14.324 16.7417 14.2565 16.4942 14.1214C16.2492 13.9902 15.0378 13.3489 14.8128 13.2626C14.5878 13.1714 14.4227 13.1301 14.259 13.3939C14.094 13.6601 13.6252 14.2577 13.4802 14.434C13.3389 14.6077 13.1926 14.6327 12.9488 14.5002C12.7013 14.369 11.91 14.0877 10.9687 13.1826C10.2373 12.4813 9.74354 11.61 9.60103 11.3462C9.45601 11.0799 9.58477 10.9386 9.70729 10.8049C9.8198 10.6874 9.95481 10.4973 10.0773 10.3411C10.1986 10.1886 10.2423 10.0786 10.3248 9.89979C10.4049 9.72352 10.3636 9.56725 10.3023 9.43599C10.2411 9.30473 9.74854 7.99585 9.54352 7.46455C9.3435 6.94825 9.13973 7.02076 8.98972 7.01076C8.8472 7.00451 8.68344 7.00451 8.51967 7.00451Z" fill="#3F444D"/>
</svg>
