<svg width="24" height="24" viewBox="0 0 24 24" fill="none" xmlns="http://www.w3.org/2000/svg">
<path d="M11.5 19V5C11.5 4.72386 11.7239 4.5 12 4.5C12.2761 4.5 12.5 4.72386 12.5 5V19C12.5 19.2761 12.2761 19.5 12 19.5C11.7239 19.5 11.5 19.2761 11.5 19Z" fill="black"/>
<path d="M18.6464 11.6465C18.8417 11.4512 19.1582 11.4512 19.3535 11.6465C19.5487 11.8418 19.5487 12.1583 19.3535 12.3535L12.3535 19.3535C12.1582 19.5488 11.8417 19.5488 11.6464 19.3535L4.64645 12.3535C4.45118 12.1583 4.45118 11.8418 4.64645 11.6465C4.84171 11.4512 5.15822 11.4512 5.35348 11.6465L12 18.293L18.6464 11.6465Z" fill="black"/>
</svg>
