<svg width="24" height="24" viewBox="0 0 24 24" fill="none" xmlns="http://www.w3.org/2000/svg">
<path d="M19 11.5C19.2761 11.5 19.5 11.7239 19.5 12C19.5 12.2761 19.2761 12.5 19 12.5H5C4.72386 12.5 4.5 12.2761 4.5 12C4.5 11.7239 4.72386 11.5 5 11.5H19Z" fill="black"/>
<path d="M11.6464 4.64651C11.8417 4.45125 12.1582 4.45125 12.3535 4.64651L19.3535 11.6465C19.5487 11.8418 19.5487 12.1583 19.3535 12.3535L12.3535 19.3535C12.1582 19.5488 11.8417 19.5488 11.6464 19.3535C11.4512 19.1583 11.4512 18.8418 11.6464 18.6465L18.2929 12L11.6464 5.35354C11.4512 5.15828 11.4512 4.84177 11.6464 4.64651Z" fill="black"/>
</svg>
