<svg width="24" height="24" viewBox="0 0 24 24" fill="none" xmlns="http://www.w3.org/2000/svg">
<path d="M6.64645 6.64651C6.84171 6.45125 7.15822 6.45125 7.35348 6.64651L17.3535 16.6465C17.5487 16.8418 17.5487 17.1583 17.3535 17.3535C17.1582 17.5488 16.8417 17.5488 16.6464 17.3535L6.64645 7.35354C6.45118 7.15828 6.45118 6.84177 6.64645 6.64651Z" fill="black"/>
<path d="M16.5 7C16.5 6.72386 16.7239 6.5 17 6.5C17.2761 6.5 17.5 6.72386 17.5 7V17C17.5 17.2761 17.2761 17.5 17 17.5H7C6.72386 17.5 6.5 17.2761 6.5 17C6.5 16.7239 6.72386 16.5 7 16.5H16.5V7Z" fill="black"/>
</svg>
