<svg width="24" height="24" viewBox="0 0 24 24" fill="none" xmlns="http://www.w3.org/2000/svg">
<path d="M11.6464 4.64651C11.8417 4.45125 12.1582 4.45125 12.3535 4.64651C12.5487 4.84177 12.5487 5.15828 12.3535 5.35354L5.70699 12L12.3535 18.6465C12.5487 18.8418 12.5487 19.1583 12.3535 19.3535C12.1582 19.5488 11.8417 19.5488 11.6464 19.3535L4.64645 12.3535C4.45118 12.1583 4.45118 11.8418 4.64645 11.6465L11.6464 4.64651Z" fill="black"/>
<path d="M19 11.5C19.2761 11.5 19.5 11.7239 19.5 12C19.5 12.2761 19.2761 12.5 19 12.5H5C4.72386 12.5 4.5 12.2761 4.5 12C4.5 11.7239 4.72386 11.5 5 11.5H19Z" fill="black"/>
</svg>
