<svg width="24" height="24" viewBox="0 0 24 24" fill="none" xmlns="http://www.w3.org/2000/svg">
<path d="M16.5 17V7.5H7C6.72386 7.5 6.5 7.27614 6.5 7C6.5 6.72386 6.72386 6.5 7 6.5H17C17.2761 6.5 17.5 6.72386 17.5 7V17C17.5 17.2761 17.2761 17.5 17 17.5C16.7239 17.5 16.5 17.2761 16.5 17Z" fill="black"/>
<path d="M16.6464 6.64651C16.8417 6.45125 17.1582 6.45125 17.3535 6.64651C17.5487 6.84177 17.5487 7.15828 17.3535 7.35354L7.35348 17.3535C7.15822 17.5488 6.84171 17.5488 6.64645 17.3535C6.45118 17.1583 6.45118 16.8418 6.64645 16.6465L16.6464 6.64651Z" fill="black"/>
</svg>
