<svg width="24" height="24" viewBox="0 0 24 24" fill="none" xmlns="http://www.w3.org/2000/svg">
<path d="M11.7246 4.58206C11.9187 4.45389 12.1826 4.47564 12.3535 4.64651L19.3535 11.6465C19.5487 11.8418 19.5487 12.1583 19.3535 12.3535C19.1582 12.5488 18.8417 12.5488 18.6464 12.3535L12 5.70706L5.35348 12.3535C5.15822 12.5488 4.84171 12.5488 4.64645 12.3535C4.45118 12.1583 4.45118 11.8418 4.64645 11.6465L11.6464 4.64651L11.7246 4.58206Z" fill="black"/>
<path d="M11.5 19V5C11.5 4.72386 11.7239 4.5 12 4.5C12.2761 4.5 12.5 4.72386 12.5 5V19C12.5 19.2761 12.2761 19.5 12 19.5C11.7239 19.5 11.5 19.2761 11.5 19Z" fill="black"/>
</svg>
