<svg width="24" height="24" viewBox="0 0 24 24" fill="none" xmlns="http://www.w3.org/2000/svg">
<path d="M17.5 20C17.5 18.5413 16.9201 17.1428 15.8887 16.1113C14.8572 15.0799 13.4587 14.5 12 14.5C10.5413 14.5 9.14278 15.0799 8.11133 16.1113C7.07988 17.1428 6.5 18.5413 6.5 20C6.5 20.2761 6.27614 20.5 6 20.5C5.72386 20.5 5.5 20.2761 5.5 20C5.5 18.2761 6.18433 16.6223 7.40332 15.4033C8.62231 14.1843 10.2761 13.5 12 13.5C13.7239 13.5 15.3777 14.1843 16.5967 15.4033C17.8157 16.6223 18.5 18.2761 18.5 20C18.5 20.2761 18.2761 20.5 18 20.5C17.7239 20.5 17.5 20.2761 17.5 20Z" fill="black"/>
<path d="M15.5 10C15.5 8.067 13.933 6.5 12 6.5C10.067 6.5 8.5 8.067 8.5 10C8.5 11.933 10.067 13.5 12 13.5C13.933 13.5 15.5 11.933 15.5 10ZM16.5 10C16.5 12.4853 14.4853 14.5 12 14.5C9.51472 14.5 7.5 12.4853 7.5 10C7.5 7.51472 9.51472 5.5 12 5.5C14.4853 5.5 16.5 7.51472 16.5 10Z" fill="black"/>
<path d="M21.5 12C21.5 6.75329 17.2467 2.5 12 2.5C6.75329 2.5 2.5 6.75329 2.5 12C2.5 17.2467 6.75329 21.5 12 21.5C17.2467 21.5 21.5 17.2467 21.5 12ZM22.5 12C22.5 17.799 17.799 22.5 12 22.5C6.20101 22.5 1.5 17.799 1.5 12C1.5 6.20101 6.20101 1.5 12 1.5C17.799 1.5 22.5 6.20101 22.5 12Z" fill="black"/>
</svg>
