<svg width="24" height="24" viewBox="0 0 24 24" fill="none" xmlns="http://www.w3.org/2000/svg">
<path d="M17.6464 5.64645C17.8417 5.45118 18.1582 5.45118 18.3535 5.64645C18.5487 5.84171 18.5487 6.15822 18.3535 6.35348L6.35348 18.3535C6.15822 18.5487 5.84171 18.5487 5.64645 18.3535C5.45118 18.1582 5.45118 17.8417 5.64645 17.6464L17.6464 5.64645Z" fill="black"/>
<path d="M5.64645 5.64645C5.84171 5.45118 6.15822 5.45118 6.35348 5.64645L18.3535 17.6464C18.5487 17.8417 18.5487 18.1582 18.3535 18.3535C18.1582 18.5487 17.8417 18.5487 17.6464 18.3535L5.64645 6.35348C5.45118 6.15822 5.45118 5.84171 5.64645 5.64645Z" fill="black"/>
</svg>
