<svg width="24" height="24" viewBox="0 0 24 24" fill="none" xmlns="http://www.w3.org/2000/svg">
<path d="M11.5 15V3C11.5 2.72386 11.7239 2.5 12 2.5C12.2761 2.5 12.5 2.72386 12.5 3V15C12.5 15.2761 12.2761 15.5 12 15.5C11.7239 15.5 11.5 15.2761 11.5 15Z" fill="black"/>
<path d="M2.5 19V15C2.5 14.7239 2.72386 14.5 3 14.5C3.27614 14.5 3.5 14.7239 3.5 15V19L3.50781 19.1484C3.54195 19.4917 3.69337 19.8145 3.93945 20.0605C4.22076 20.3419 4.60218 20.5 5 20.5H19C19.3978 20.5 19.7792 20.3419 20.0605 20.0605C20.3419 19.7792 20.5 19.3978 20.5 19V15C20.5 14.7239 20.7239 14.5 21 14.5C21.2761 14.5 21.5 14.7239 21.5 15V19C21.5 19.663 21.2364 20.2987 20.7676 20.7676C20.2987 21.2364 19.663 21.5 19 21.5H5C4.33696 21.5 3.70126 21.2364 3.23242 20.7676C2.76358 20.2987 2.5 19.663 2.5 19Z" fill="black"/>
<path d="M16.6464 9.64651C16.8417 9.45125 17.1582 9.45125 17.3535 9.64651C17.5487 9.84177 17.5487 10.1583 17.3535 10.3535L12.3535 15.3535C12.1582 15.5488 11.8417 15.5488 11.6464 15.3535L6.64645 10.3535C6.45118 10.1583 6.45118 9.84177 6.64645 9.64651C6.84171 9.45125 7.15822 9.45125 7.35348 9.64651L12 14.293L16.6464 9.64651Z" fill="black"/>
</svg>
