<svg width="24" height="24" viewBox="0 0 24 24" fill="none" xmlns="http://www.w3.org/2000/svg">
<path d="M21.7316 6.57921C21.9644 6.43095 22.2737 6.49966 22.422 6.73253C22.5702 6.96542 22.5015 7.27463 22.2687 7.42296L13.2774 13.1495C13.2717 13.1532 13.2658 13.1568 13.2599 13.1603C12.8786 13.3816 12.4458 13.4981 12.005 13.4982C11.564 13.4982 11.1305 13.3818 10.7491 13.1603C10.7433 13.1569 10.7372 13.1531 10.7316 13.1495L1.73155 7.42296C1.49864 7.27469 1.43 6.96548 1.57823 6.73253C1.7265 6.49961 2.03571 6.43097 2.26866 6.57921L11.2608 12.3009C11.4874 12.4303 11.744 12.4982 12.005 12.4982C12.2681 12.4981 12.5261 12.4285 12.754 12.297L21.7316 6.57921Z" fill="black"/>
<path d="M21.5 6.00098C21.5 5.17255 20.8284 4.50098 20 4.50098H4C3.17157 4.50098 2.5 5.17255 2.5 6.00098V18.001C2.5 18.8294 3.17157 19.501 4 19.501H20C20.8284 19.501 21.5 18.8294 21.5 18.001V6.00098ZM22.5 18.001C22.5 19.3817 21.3807 20.501 20 20.501H4C2.61929 20.501 1.5 19.3817 1.5 18.001V6.00098C1.5 4.62026 2.61929 3.50098 4 3.50098H20C21.3807 3.50098 22.5 4.62026 22.5 6.00098V18.001Z" fill="black"/>
</svg>
