<svg width="24" height="24" viewBox="0 0 24 24" fill="none" xmlns="http://www.w3.org/2000/svg">
<path d="M19.5 10C19.5 8.01088 18.7102 6.10281 17.3037 4.69629C15.8972 3.28977 13.9891 2.5 12 2.5C10.0109 2.5 8.10281 3.28977 6.69629 4.69629C5.28977 6.10281 4.5 8.01088 4.5 10C4.5 12.3279 5.80026 14.7661 7.39941 16.8672C8.97563 18.9381 10.7824 20.6043 11.7061 21.4033C11.7915 21.4656 11.8941 21.5 12 21.5L12.0801 21.4932C12.1569 21.4807 12.2294 21.4494 12.293 21.4033C13.2164 20.6045 15.024 18.9386 16.6006 16.8672C18.1997 14.7661 19.5 12.3279 19.5 10ZM20.5 10C20.5 12.6651 19.0309 15.324 17.3955 17.4727C15.7486 19.6364 13.8703 21.3639 12.9277 22.1777C12.9193 22.185 12.9103 22.1915 12.9014 22.1982C12.6738 22.3693 12.4032 22.4723 12.1211 22.4951L12 22.5C11.6748 22.5 11.3585 22.3937 11.0986 22.1982C11.0897 22.1915 11.0807 22.185 11.0723 22.1777C10.1297 21.3639 8.25137 19.6364 6.60449 17.4727C4.96915 15.324 3.5 12.6651 3.5 10C3.5 7.74566 4.3952 5.58332 5.98926 3.98926C7.58332 2.3952 9.74566 1.5 12 1.5C14.2543 1.5 16.4167 2.3952 18.0107 3.98926C19.6048 5.58332 20.5 7.74566 20.5 10Z" fill="black"/>
<path d="M14.5 10.001C14.5 8.62026 13.3807 7.50098 12 7.50098C10.6193 7.50098 9.5 8.62026 9.5 10.001C9.5 11.3817 10.6193 12.501 12 12.501C13.3807 12.501 14.5 11.3817 14.5 10.001ZM15.5 10.001C15.5 11.934 13.933 13.501 12 13.501C10.067 13.501 8.5 11.934 8.5 10.001C8.5 8.06798 10.067 6.50098 12 6.50098C13.933 6.50098 15.5 8.06798 15.5 10.001Z" fill="black"/>
</svg>
