<svg width="24" height="24" viewBox="0 0 24 24" fill="none" xmlns="http://www.w3.org/2000/svg">
<path d="M8.5 4C8.5 3.60218 8.34185 3.22076 8.06055 2.93945C7.77924 2.65815 7.39782 2.5 7 2.5H4C3.60218 2.5 3.22076 2.65815 2.93945 2.93945C2.65815 3.22076 2.5 3.60218 2.5 4C2.5 8.64129 4.34409 13.0921 7.62598 16.374C10.9079 19.6559 15.3587 21.5 20 21.5C20.3978 21.5 20.7792 21.3419 21.0605 21.0605C21.3419 20.7792 21.5 20.3978 21.5 20V17C21.5 16.6022 21.3419 16.2208 21.0605 15.9395C20.7792 15.6581 20.3978 15.5 20 15.5H17C16.7671 15.5 16.5374 15.5541 16.3291 15.6582C16.1209 15.7623 15.9395 15.9134 15.7998 16.0996L15.7979 16.1035L15.4424 16.5684C15.236 16.8392 14.9436 17.0316 14.6133 17.1143C14.2825 17.1969 13.9328 17.1647 13.623 17.0225L13.6113 17.0166C10.7348 15.6047 8.40665 13.28 6.99121 10.4053L6.99023 10.4033C6.83846 10.092 6.79917 9.73744 6.87891 9.40039C6.95875 9.06324 7.15334 8.76398 7.42871 8.55371L7.43164 8.55078L7.90039 8.2002C8.08661 8.06049 8.23768 7.87912 8.3418 7.6709C8.44594 7.46262 8.5 7.23287 8.5 7V4ZM9.5 7C9.5 7.38811 9.4099 7.77103 9.23633 8.11816C9.06276 8.4653 8.81049 8.76713 8.5 9L8.03418 9.34766L8.03516 9.34863C7.94352 9.41871 7.87913 9.5186 7.85254 9.63086C7.82616 9.74248 7.83887 9.85961 7.88867 9.96289L8.14551 10.459C9.47731 12.9035 11.5352 14.8805 14.041 16.1133L14.1201 16.1426C14.2015 16.1643 14.2875 16.1651 14.3701 16.1445C14.4804 16.117 14.5786 16.0523 14.6475 15.9619L15 15.5L15.0908 15.3867C15.3094 15.1281 15.5781 14.9156 15.8818 14.7637C16.229 14.5901 16.6119 14.5 17 14.5H20C20.663 14.5 21.2987 14.7636 21.7676 15.2324C22.2364 15.7013 22.5 16.337 22.5 17V20C22.5 20.663 22.2364 21.2987 21.7676 21.7676C21.2987 22.2364 20.663 22.5 20 22.5C15.0935 22.5 10.3884 20.5505 6.91895 17.0811C3.44952 13.6116 1.5 8.9065 1.5 4C1.5 3.33696 1.76358 2.70126 2.23242 2.23242C2.70126 1.76358 3.33696 1.5 4 1.5H7C7.66304 1.5 8.29874 1.76358 8.76758 2.23242C9.23642 2.70126 9.5 3.33696 9.5 4V7Z" fill="black"/>
</svg>
