<svg width="24" height="24" viewBox="0 0 24 24" fill="none" xmlns="http://www.w3.org/2000/svg">
<path fill-rule="evenodd" clip-rule="evenodd" d="M22.164 6.426C22.3627 6.21273 22.4709 5.93066 22.4657 5.63921C22.4606 5.34776 22.3425 5.06968 22.1364 4.86356C21.9303 4.65744 21.6522 4.53938 21.3608 4.53423C21.0693 4.52909 20.7872 4.63728 20.574 4.836L4.82999 20.58C4.71946 20.683 4.6308 20.8072 4.56932 20.9452C4.50783 21.0832 4.47476 21.2322 4.4721 21.3832C4.46943 21.5343 4.49722 21.6843 4.5538 21.8244C4.61038 21.9645 4.6946 22.0917 4.80143 22.1986C4.90826 22.3054 5.03551 22.3896 5.17559 22.4462C5.31567 22.5028 5.46572 22.5305 5.61677 22.5279C5.76782 22.5252 5.91679 22.4922 6.05479 22.4307C6.19279 22.3692 6.31699 22.2805 6.41999 22.17L22.164 6.426ZM22.164 13.926C22.3627 13.7127 22.4709 13.4307 22.4657 13.1392C22.4606 12.8478 22.3425 12.5697 22.1364 12.3636C21.9303 12.1574 21.6522 12.0394 21.3608 12.0342C21.0693 12.0291 20.7872 12.1373 20.574 12.336L12.33 20.58C12.2195 20.683 12.1308 20.8072 12.0693 20.9452C12.0078 21.0832 11.9748 21.2322 11.9721 21.3832C11.9694 21.5343 11.9972 21.6843 12.0538 21.8244C12.1104 21.9645 12.1946 22.0917 12.3014 22.1986C12.4083 22.3054 12.5355 22.3896 12.6756 22.4462C12.8157 22.5028 12.9657 22.5305 13.1168 22.5279C13.2678 22.5252 13.4168 22.4922 13.5548 22.4307C13.6928 22.3692 13.817 22.2805 13.92 22.17L22.164 13.926Z" fill="#1D2433"/>
</svg>
