<svg width="24" height="24" viewBox="0 0 24 24" fill="none" xmlns="http://www.w3.org/2000/svg">
<path d="M11.5 6C11.5 5.72386 11.7239 5.5 12 5.5C12.2761 5.5 12.5 5.72386 12.5 6V11.6904L16.2236 13.5527C16.4706 13.6762 16.5708 13.9766 16.4473 14.2236C16.3238 14.4706 16.0234 14.5708 15.7764 14.4473L11.7764 12.4473C11.607 12.3626 11.5 12.1894 11.5 12V6Z" fill="black"/>
<path d="M21.5 12C21.5 6.75329 17.2467 2.5 12 2.5C6.75329 2.5 2.5 6.75329 2.5 12C2.5 17.2467 6.75329 21.5 12 21.5C17.2467 21.5 21.5 17.2467 21.5 12ZM22.5 12C22.5 17.799 17.799 22.5 12 22.5C6.20101 22.5 1.5 17.799 1.5 12C1.5 6.20101 6.20101 1.5 12 1.5C17.799 1.5 22.5 6.20101 22.5 12Z" fill="black"/>
</svg>
