<svg width="24" height="24" viewBox="0 0 24 24" fill="none" xmlns="http://www.w3.org/2000/svg">
<path d="M1.5 20.9996C1.5 19.3638 1.97205 17.7624 2.85938 16.3882C3.74677 15.0141 5.01203 13.9255 6.50293 13.2525C7.99396 12.5794 9.64794 12.3508 11.2656 12.5943C12.8831 12.8379 14.3963 13.5426 15.623 14.6246C15.8301 14.8072 15.8496 15.1235 15.667 15.3306C15.4843 15.5377 15.168 15.5572 14.9609 15.3746C13.8785 14.4199 12.5434 13.7984 11.1162 13.5836C9.68886 13.3687 8.22966 13.5698 6.91406 14.1636C5.59852 14.7575 4.4822 15.7187 3.69922 16.9312C2.91634 18.1437 2.5 19.5563 2.5 20.9996C2.50002 21.2757 2.27614 21.4996 2 21.4996C1.72387 21.4996 1.50002 21.2757 1.5 20.9996Z" fill="black"/>
<path d="M14.5 8C14.5 5.51472 12.4853 3.5 10 3.5C7.51472 3.5 5.5 5.51472 5.5 8C5.5 10.4853 7.51472 12.5 10 12.5C12.4853 12.5 14.5 10.4853 14.5 8ZM15.5 8C15.5 11.0376 13.0376 13.5 10 13.5C6.96243 13.5 4.5 11.0376 4.5 8C4.5 4.96243 6.96243 2.5 10 2.5C13.0376 2.5 15.5 4.96243 15.5 8Z" fill="black"/>
<path d="M21.6464 16.6465C21.8417 16.4512 22.1582 16.4512 22.3535 16.6465C22.5487 16.8418 22.5487 17.1583 22.3535 17.3535L18.3535 21.3535C18.1582 21.5488 17.8417 21.5488 17.6464 21.3535L15.6464 19.3535C15.4512 19.1583 15.4512 18.8418 15.6464 18.6465C15.8417 18.4512 16.1582 18.4512 16.3535 18.6465L18 20.293L21.6464 16.6465Z" fill="black"/>
</svg>
