<svg width="40" height="40" viewBox="0 0 40 40" fill="none" xmlns="http://www.w3.org/2000/svg">
<path d="M12 0.5H28C34.3513 0.5 39.5 5.64873 39.5 12V28C39.5 34.3513 34.3513 39.5 28 39.5H12C5.64873 39.5 0.5 34.3513 0.5 28V12C0.5 5.64873 5.64873 0.5 12 0.5Z" fill="#F4FAFF"/>
<path d="M12 0.5H28C34.3513 0.5 39.5 5.64873 39.5 12V28C39.5 34.3513 34.3513 39.5 28 39.5H12C5.64873 39.5 0.5 34.3513 0.5 28V12C0.5 5.64873 5.64873 0.5 12 0.5Z" stroke="#D2EDFE"/>
<path d="M30 22.6163V26.7182L25.7121 30.0005L21.4243 26.7182V22.6163L25.7121 19.334L30 22.6163ZM22.4254 23.1317V26.2022L25.7121 28.7182L28.9989 26.2022V23.1317L25.7121 20.6158L22.4254 23.1317Z" fill="#008BF9"/>
<path d="M16.915 10C17.7611 10 18.4473 10.7046 18.4473 11.5732V12.5469H25.3193C27.0112 12.547 28.3826 13.9553 28.3828 15.6924V20.1201L25.7119 18.0762L20.4131 22.1318V26.1514H13.0635C11.3717 26.1512 10.0002 24.7429 10 23.0059V11.5732C10 10.7046 10.6862 10 11.5322 10H16.915Z" fill="#D2EDFE"/>
<path d="M16.915 10C17.7611 10 18.4473 10.7046 18.4473 11.5732V12.5469H25.3193C27.0112 12.547 28.3826 13.9553 28.3828 15.6924V20.1201L27.6172 19.5342V15.6924C27.617 14.4303 26.6514 13.4002 25.4375 13.3369L25.3193 13.334H17.6816V11.5732C17.6816 11.166 17.3795 10.8312 16.9932 10.791L16.915 10.7861H11.5322C11.1092 10.7861 10.7656 11.1389 10.7656 11.5732V23.0059C10.7658 24.3086 11.7947 25.365 13.0635 25.3652H20.4131V26.1514H13.0635C11.3717 26.1512 10.0002 24.7429 10 23.0059V11.5732C10 10.7046 10.6862 10 11.5322 10H16.915Z" fill="#008BF9"/>
</svg>
