<svg width="40" height="40" viewBox="0 0 40 40" fill="none" xmlns="http://www.w3.org/2000/svg">
<path d="M12 0.5H28C34.3513 0.5 39.5 5.64873 39.5 12V28C39.5 34.3513 34.3513 39.5 28 39.5H12C5.64873 39.5 0.5 34.3513 0.5 28V12C0.5 5.64873 5.64873 0.5 12 0.5Z" fill="#F4FAFF"/>
<path d="M12 0.5H28C34.3513 0.5 39.5 5.64873 39.5 12V28C39.5 34.3513 34.3513 39.5 28 39.5H12C5.64873 39.5 0.5 34.3513 0.5 28V12C0.5 5.64873 5.64873 0.5 12 0.5Z" stroke="#D2EDFE"/>
<path d="M11.8794 13.0645H28.2358V26.4028H11.8794V13.0645Z" fill="#D2EDFE"/>
<path d="M28.236 13.0645V26.403H11.8794V13.0645H28.236ZM12.8068 25.4606H27.3086V14.0069H12.8068V25.4606Z" fill="#008BF9"/>
<path d="M28.1452 13.016V13.9584H11.8548V13.016H28.1452ZM29.0726 12.0735V11.8849C29.0726 11.3644 28.6574 10.9424 28.1452 10.9424H11.8548C11.3426 10.9424 10.9274 11.3644 10.9274 11.8849V12.0735C10.9274 12.594 11.3426 13.016 11.8548 13.016V13.9584C10.8625 13.9584 10.052 13.1665 10.0023 12.1706L10 12.0735V11.8849C10 10.8439 10.8304 10 11.8548 10H28.1452L28.2408 10.0023C29.2207 10.0528 30 10.8764 30 11.8849V12.0735L29.9977 12.1706C29.9496 13.1343 29.1891 13.9072 28.2408 13.9561L28.1452 13.9584V13.016C28.6574 13.016 29.0726 12.594 29.0726 12.0735Z" fill="#008BF9"/>
<path d="M29.5363 25.46C29.7924 25.46 30 25.6709 30 25.9312C30 26.1914 29.7924 26.4024 29.5363 26.4024H10.4637C10.2076 26.4024 10 26.1914 10 25.9312C10 25.6709 10.2076 25.46 10.4637 25.46H29.5363Z" fill="#008BF9"/>
<path d="M20.4907 29.5286C20.4907 29.7888 20.2831 29.9999 20.027 29.9999C19.771 29.9999 19.5634 29.7888 19.5633 29.5286L19.5633 26.3521C19.5633 26.0918 19.7709 25.8809 20.027 25.8809C20.2831 25.8809 20.4907 26.0918 20.4907 26.3521L20.4907 29.5286Z" fill="#008BF9"/>
</svg>
