<svg width="40" height="40" viewBox="0 0 40 40" fill="none" xmlns="http://www.w3.org/2000/svg">
<path d="M12 0.5H28C34.3513 0.5 39.5 5.64873 39.5 12V28C39.5 34.3513 34.3513 39.5 28 39.5H12C5.64873 39.5 0.5 34.3513 0.5 28V12C0.5 5.64873 5.64873 0.5 12 0.5Z" fill="#F4FAFF"/>
<path d="M12 0.5H28C34.3513 0.5 39.5 5.64873 39.5 12V28C39.5 34.3513 34.3513 39.5 28 39.5H12C5.64873 39.5 0.5 34.3513 0.5 28V12C0.5 5.64873 5.64873 0.5 12 0.5Z" stroke="#D2EDFE"/>
<path d="M29.9995 16.9478L19.9614 22.1285L10.0005 16.7341L19.8735 11.2773L29.9995 16.9478Z" fill="#D2EDFE"/>
<path d="M29.9995 16.9478L19.9614 22.1285L10.0005 16.7341L19.8735 11.2773L29.9995 16.9478ZM11.7476 16.7258L19.9692 21.1781L28.2271 16.9167L19.8706 12.2361L11.7476 16.7258Z" fill="#008BF9"/>
<path d="M20.167 21.3744L25.1968 18.5287V23.6222C25.1968 25.2087 24.1313 26.495 22.8171 26.495H17.1985C15.8842 26.495 14.8184 25.2087 14.8184 23.6222V18.4482L20.167 21.3744Z" fill="#D2EDFE"/>
<path d="M22.8171 25.5374V26.495H17.1985V25.5374H22.8171ZM24.4036 23.6222V20.0348L20.1724 22.4289L15.6116 19.9333V23.6222C15.6117 24.6797 16.3222 25.5374 17.1985 25.5374V26.495C15.8842 26.495 14.8184 25.2087 14.8184 23.6222V18.4482L20.167 21.3744L25.1968 18.5287V23.6222C25.1968 25.2087 24.1313 26.495 22.8171 26.495V25.5374C23.6658 25.5373 24.3591 24.7326 24.4016 23.7208L24.4036 23.6222Z" fill="#008BF9"/>
<path d="M12.3525 24.2965V18.1233C12.3525 17.8589 12.5301 17.6445 12.7492 17.6445C12.9682 17.6445 13.1458 17.8589 13.1458 18.1233V24.2965C13.1458 24.5609 12.9682 24.7753 12.7492 24.7753C12.5301 24.7753 12.3525 24.5609 12.3525 24.2965Z" fill="#008BF9"/>
<path d="M13.7715 26.0856C13.7715 25.404 13.314 24.8513 12.7494 24.8512C12.1847 24.8512 11.7268 25.404 11.7268 26.0856C11.7269 26.7672 12.1848 27.3196 12.7494 27.3196V28.2772L12.6557 28.2744C11.7274 28.2175 10.983 27.319 10.9359 26.1983L10.9336 26.0856C10.9336 24.8751 11.7466 23.8936 12.7494 23.8936L12.8427 23.8964C13.802 23.9551 14.5648 24.9129 14.5648 26.0856L14.5625 26.1983C14.5138 27.3564 13.7207 28.2771 12.7494 28.2772V27.3196C13.3139 27.3195 13.7715 26.7672 13.7715 26.0856Z" fill="#008BF9"/>
</svg>
