<svg width="40" height="40" viewBox="0 0 40 40" fill="none" xmlns="http://www.w3.org/2000/svg">
<path d="M12 0.5H28C34.3513 0.5 39.5 5.64873 39.5 12V28C39.5 34.3513 34.3513 39.5 28 39.5H12C5.64873 39.5 0.5 34.3513 0.5 28V12C0.5 5.64873 5.64873 0.5 12 0.5Z" fill="#F4FAFF"/>
<path d="M12 0.5H28C34.3513 0.5 39.5 5.64873 39.5 12V28C39.5 34.3513 34.3513 39.5 28 39.5H12C5.64873 39.5 0.5 34.3513 0.5 28V12C0.5 5.64873 5.64873 0.5 12 0.5Z" stroke="#D2EDFE"/>
<path d="M22.335 21.2071C22.335 20.7206 22.737 20.3262 23.233 20.3262H29.1022C29.5982 20.3262 30.0002 20.7206 30.0002 21.2071V27.3571C30.0002 28.8166 28.794 29.9997 27.306 29.9997H25.0292C23.5412 29.9997 22.335 28.8166 22.335 27.3571V21.2071Z" fill="#D2EDFE"/>
<path d="M27.306 29.119V29.9999H25.0292V29.119H27.306ZM29.1022 27.3569V21.2071H23.233V27.3573C23.2332 28.3302 24.0373 29.119 25.0292 29.119V29.9999L24.8906 29.9965C23.513 29.928 22.4084 28.8444 22.3385 27.4932L22.335 27.3573V21.2071C22.335 20.7206 22.737 20.3262 23.233 20.3262H29.1022C29.5982 20.3262 30.0002 20.7206 30.0002 21.2071V27.3569C30.0002 28.7708 28.8682 29.9258 27.4446 29.9965L27.306 29.9999V29.119C28.298 29.119 29.1022 28.3299 29.1022 27.3569Z" fill="#008BF9"/>
<path d="M28.1597 10.0986L29.7169 15.5293L26.1675 18.2171L22.6182 15.5293L24.1753 10.0986H28.1597ZM23.6469 15.1951L26.1675 17.1039L28.6881 15.1951L27.4796 10.9795H24.8559L23.6469 15.1951Z" fill="#008BF9"/>
<path d="M26.612 17.6445V20.6558H25.7139V17.6445H26.612Z" fill="#008BF9"/>
<path d="M17.4578 10.7344C18.5228 11.292 20.6524 13.1584 20.6524 16.1623C20.6523 19.1659 18.5228 20.19 17.4578 20.3266V28.2104C17.4727 28.5704 17.1122 29.2898 15.551 29.2899C13.9898 29.2899 13.6294 28.5704 13.6443 28.2104V20.3266C12.5793 20.1901 10.4493 19.1661 10.4492 16.1623C10.4492 13.1584 12.5793 11.292 13.6443 10.7344V15.0824C13.6443 16.0755 14.9155 16.2162 15.551 16.1623C16.1867 16.2161 17.4578 16.0754 17.4578 15.0824V10.7344Z" fill="#D2EDFE"/>
<path d="M17.0084 10L17.6692 10.3458C18.8272 10.9522 21.1011 12.9442 21.1011 16.1623C21.101 17.7766 20.5243 18.8976 19.7706 19.632C19.1735 20.2138 18.4787 20.5399 17.9065 20.6867V28.1922L17.9069 28.2546C17.8996 28.5686 17.7413 28.939 17.3776 29.2275C16.9897 29.5352 16.3973 29.7303 15.5508 29.7303C14.7041 29.7303 14.1117 29.5353 13.7239 29.2275C13.343 28.9253 13.1882 28.5332 13.1955 28.2103H13.195V20.6867C12.6228 20.5399 11.928 20.2138 11.3309 19.632C10.6006 18.9205 10.0363 17.8463 10.0018 16.312L10 16.1623C10 12.944 12.2748 10.952 13.4327 10.3458L14.0931 10V15.0823C14.0931 15.2299 14.1373 15.3245 14.1975 15.3954C14.264 15.4737 14.3709 15.5465 14.5229 15.6049C14.8346 15.7246 15.2362 15.7465 15.5122 15.7231L15.5508 15.7201L15.5893 15.7231C15.8653 15.7465 16.267 15.7245 16.5786 15.6049C16.7306 15.5465 16.8375 15.4737 16.904 15.3954C16.9642 15.3245 17.0084 15.2299 17.0084 15.0823V10ZM17.9065 15.0823C17.9064 15.4309 17.7921 15.7263 17.5942 15.9593C17.4026 16.1849 17.1514 16.3309 16.9062 16.4251C16.4404 16.604 15.9104 16.6289 15.5508 16.6032C15.1911 16.6289 14.661 16.604 14.1953 16.4251C13.9501 16.3309 13.6993 16.1849 13.5077 15.9593C13.3098 15.7262 13.1951 15.431 13.195 15.0823V11.5587C12.186 12.3493 10.8981 13.9157 10.8981 16.1623L10.9038 16.4169C10.9596 17.6617 11.4223 18.4796 11.9637 19.0071C12.5532 19.5815 13.2585 19.8328 13.7024 19.8897L14.0931 19.94V28.2193L14.0927 28.2283C14.0914 28.2624 14.1103 28.4012 14.2887 28.5428C14.4676 28.6847 14.8363 28.8494 15.5508 28.8494C16.2653 28.8494 16.6338 28.6843 16.8128 28.5423C16.9916 28.4004 17.0102 28.2616 17.0088 28.2279L17.0084 28.2193V19.94L17.3995 19.8897C17.8434 19.8327 18.5485 19.5814 19.1378 19.0071C19.7151 18.4445 20.2029 17.5514 20.203 16.1623C20.203 13.9155 18.9154 12.3487 17.9065 11.5583V15.0823Z" fill="#008BF9"/>
</svg>
