<svg width="40" height="40" viewBox="0 0 40 40" fill="none" xmlns="http://www.w3.org/2000/svg">
<path d="M12 0.5H28C34.3513 0.5 39.5 5.64873 39.5 12V28C39.5 34.3513 34.3513 39.5 28 39.5H12C5.64873 39.5 0.5 34.3513 0.5 28V12C0.5 5.64873 5.64873 0.5 12 0.5Z" fill="#F4FAFF"/>
<path d="M12 0.5H28C34.3513 0.5 39.5 5.64873 39.5 12V28C39.5 34.3513 34.3513 39.5 28 39.5H12C5.64873 39.5 0.5 34.3513 0.5 28V12C0.5 5.64873 5.64873 0.5 12 0.5Z" stroke="#D2EDFE"/>
<path d="M18.1619 26.842C18.1619 28.8625 16.537 30.5004 14.5326 30.5004C12.5282 30.5004 10.9033 28.8625 10.9033 26.842C10.9033 24.8215 12.5282 23.1836 14.5326 23.1836C16.537 23.1836 18.1619 24.8215 18.1619 26.842Z" fill="#D2EDFE"/>
<path d="M17.3115 26.8421C17.3115 25.2952 16.0673 24.0411 14.5327 24.0411C12.9981 24.0411 11.754 25.2952 11.754 26.8421C11.754 28.389 12.9982 29.6431 14.5327 29.6431V30.5006L14.3458 30.4956C12.49 30.4007 11.0019 28.9008 10.9079 27.0301L10.9033 26.8421C10.9033 24.8216 12.5283 23.1836 14.5327 23.1836L14.7192 23.1882C16.6369 23.2861 18.1621 24.8847 18.1621 26.8421L18.1571 27.0301C18.06 28.9631 16.4745 30.5006 14.5327 30.5006V29.6431C16.0672 29.6431 17.3114 28.3889 17.3115 26.8421Z" fill="#008BF9"/>
<path d="M22.3182 21.426V15.8868C22.3118 15.4357 22.434 14.772 22.8345 14.2074C23.2533 13.6171 23.9534 13.1699 25.0131 13.1699H28.0481L26.0677 11.1732C25.9016 11.0057 25.9016 10.7343 26.0677 10.5669C26.2338 10.3996 26.5031 10.3995 26.6691 10.5669L29.3756 13.2955C29.5417 13.4629 29.5417 13.7343 29.3756 13.9018L26.6691 16.6304C26.5031 16.7977 26.2338 16.7976 26.0677 16.6304C25.9016 16.4629 25.9016 16.1915 26.0677 16.0241L28.0481 14.0274H25.0131C24.2252 14.0274 23.784 14.3431 23.5265 14.7061C23.253 15.0917 23.1635 15.5678 23.1689 15.8792V21.426C23.1689 23.7077 22.9253 25.1638 22.5421 26.0572C22.3488 26.5079 22.1089 26.8406 21.8227 27.0562C21.5386 27.2701 21.2304 27.3506 20.9326 27.3358V27.3363H17.6841V26.4788H20.9475L20.9625 26.4796C21.0736 26.4875 21.1896 26.4627 21.3139 26.3691C21.4456 26.2699 21.6064 26.0777 21.7612 25.7168C22.0744 24.9865 22.3182 23.6722 22.3182 21.426Z" fill="#008BF9"/>
<path d="M15.2442 9.5L16.5255 12.9906L19.9883 14.2822L16.5255 15.5739L15.2442 19.0644L13.9628 15.5739L10.5 14.2822L13.9628 12.9906L15.2442 9.5Z" fill="#D2EDFE"/>
<path d="M16.5256 12.9906L19.9884 14.2823L16.5256 15.5739L15.2442 19.0645L13.9628 15.5739L10.5 14.2823L13.9628 12.9906L15.2442 9.5L16.5256 12.9906ZM14.6249 13.658L12.9514 14.2823L14.6249 14.9065L15.2442 16.593L15.8635 14.9065L17.5366 14.2823L15.8635 13.658L15.2442 11.9711L14.6249 13.658Z" fill="#008BF9"/>
</svg>
