<svg width="24" height="24" viewBox="0 0 24 24" fill="none" xmlns="http://www.w3.org/2000/svg">
<path d="M18.4095 2C19.2877 2 20 2.74619 20 3.66667V22H13.9572V17.7104C13.9572 17.2502 13.6012 16.8771 13.1621 16.8771H10.8379C10.3988 16.8771 10.0428 17.2502 10.0428 17.7104V22H4V3.66667C4 2.74623 4.71196 2.00005 5.5901 2H18.4095Z" fill="#D2EDFE"/>
<path d="M19.2049 3.66667C19.2049 3.20669 18.8489 2.83333 18.4095 2.83333H5.5901C5.15099 2.83339 4.79505 3.20653 4.79505 3.66667V21.1667H9.2478V17.7104C9.2478 16.79 9.95971 16.0438 10.8379 16.0438V16.8771C10.3988 16.8771 10.0428 17.2502 10.0428 17.7104V22H4V3.66667C4 2.74623 4.71196 2.00005 5.5901 2H18.4095C19.2877 2 20 2.74619 20 3.66667V22H13.9572V17.7104C13.9572 17.2502 13.6012 16.8771 13.1621 16.8771V16.0438C14.0403 16.0438 14.7522 16.79 14.7522 17.7104V21.1667H19.2049V3.66667ZM13.1621 16.0438V16.8771H10.8379V16.0438H13.1621Z" fill="#008BF9"/>
<path d="M10.5025 5.82837C10.7221 5.82837 10.9001 6.01492 10.9001 6.24504C10.9001 6.47515 10.7221 6.6617 10.5025 6.6617H7.43219C7.21265 6.6617 7.03467 6.47515 7.03467 6.24504C7.03467 6.01492 7.21265 5.82837 7.43219 5.82837H10.5025Z" fill="#008BF9"/>
<path d="M10.5025 8.83496C10.7221 8.83496 10.9001 9.02151 10.9001 9.25163C10.9001 9.48175 10.7221 9.66829 10.5025 9.66829H7.43219C7.21265 9.66829 7.03467 9.48175 7.03467 9.25163C7.03467 9.02151 7.21265 8.83496 7.43219 8.83496H10.5025Z" fill="#008BF9"/>
<path d="M10.5025 11.9976C10.7221 11.9976 10.9001 12.1841 10.9001 12.4142C10.9001 12.6443 10.7221 12.8309 10.5025 12.8309H7.43219C7.21265 12.8309 7.03467 12.6443 7.03467 12.4142C7.03467 12.1841 7.21265 11.9976 7.43219 11.9976H10.5025Z" fill="#008BF9"/>
<path d="M16.5377 5.82837C16.7572 5.82837 16.9352 6.01492 16.9352 6.24504C16.9352 6.47515 16.7572 6.6617 16.5377 6.6617H13.4673C13.2478 6.6617 13.0698 6.47515 13.0698 6.24504C13.0698 6.01492 13.2478 5.82837 13.4673 5.82837H16.5377Z" fill="#008BF9"/>
<path d="M16.5377 8.83496C16.7572 8.83496 16.9352 9.02151 16.9352 9.25163C16.9352 9.48175 16.7572 9.66829 16.5377 9.66829H13.4673C13.2478 9.66829 13.0698 9.48175 13.0698 9.25163C13.0698 9.02151 13.2478 8.83496 13.4673 8.83496H16.5377Z" fill="#008BF9"/>
<path d="M16.5377 11.9976C16.7572 11.9976 16.9352 12.1841 16.9352 12.4142C16.9352 12.6443 16.7572 12.8309 16.5377 12.8309H13.4673C13.2478 12.8309 13.0698 12.6443 13.0698 12.4142C13.0698 12.1841 13.2478 11.9976 13.4673 11.9976H16.5377Z" fill="#008BF9"/>
</svg>
