<svg width="24" height="24" viewBox="0 0 24 24" fill="none" xmlns="http://www.w3.org/2000/svg">
<path d="M20.2379 2C21.211 2 21.9999 2.74618 21.9999 3.66665V18.6665C21.9999 20.5074 20.4222 21.9998 18.4759 21.9998H4.60004L4.59961 21.9969C5.84951 21.94 6.84428 20.9635 6.84428 19.7672V2H20.2379Z" fill="#D2EDFE"/>
<path d="M21.1189 18.6665V3.66665C21.1189 3.23513 20.7721 2.88041 20.3278 2.8378L20.2379 2.83332H7.72529V19.7672C7.72529 20.2714 7.5962 20.7469 7.36824 21.1665H18.4759V21.9998H4.60004L4.59961 21.9969C5.84951 21.94 6.84428 20.9635 6.84428 19.7672V2H20.2379C21.211 2 21.9999 2.74618 21.9999 3.66665V18.6665C21.9999 20.5074 20.4222 21.9998 18.4759 21.9998V21.1665C19.89 21.1665 21.0447 20.116 21.1155 18.7951L21.1189 18.6665Z" fill="#008BF9"/>
<path d="M19.3154 5.91534C19.5587 5.91534 19.7559 6.10189 19.7559 6.33201C19.7559 6.56212 19.5587 6.74867 19.3154 6.74867H10.1539C9.9106 6.74867 9.71338 6.56212 9.71338 6.33201C9.71338 6.10189 9.9106 5.91534 10.1539 5.91534H19.3154Z" fill="#008BF9"/>
<path d="M14.6325 8.75348C14.8757 8.75357 15.073 8.94008 15.073 9.17014C15.073 9.4002 14.8757 9.58671 14.6325 9.5868H10.1539C9.9106 9.5868 9.71338 9.40026 9.71338 9.17014C9.71338 8.94003 9.9106 8.75348 10.1539 8.75348H14.6325Z" fill="#008BF9"/>
<path d="M17.6016 11.5833C17.8449 11.5833 18.0421 11.7698 18.0421 11.9999C18.0421 12.23 17.8449 12.4166 17.6016 12.4166H10.1539C9.9106 12.4166 9.71338 12.23 9.71338 11.9999C9.71338 11.7698 9.9106 11.5833 10.1539 11.5833H17.6016Z" fill="#008BF9"/>
<path d="M2 19.3862V9.62759C2 8.70712 2.78888 7.96094 3.76201 7.96094H7.52694V19.3862L7.52307 19.5205C7.44913 20.9016 6.24194 22 4.76347 22.0001V21.1668C5.80298 21.1667 6.64588 20.3694 6.64594 19.3862V8.79426H3.76201C3.27545 8.79426 2.88101 9.16735 2.88101 9.62759V19.3862C2.88107 20.3695 3.72391 21.1668 4.76347 21.1668V22.0001L4.62108 21.9964C3.20809 21.9287 2.07499 20.857 2.00344 19.5205L2 19.3862Z" fill="#008BF9"/>
</svg>
