<svg width="24" height="24" viewBox="0 0 24 24" fill="none" xmlns="http://www.w3.org/2000/svg">
<path d="M4.40283 17.8284V10.3718C4.40283 10.1301 4.60209 9.9342 4.84789 9.9342C5.09369 9.9342 5.29295 10.1301 5.29295 10.3718V17.8284C5.29295 18.0701 5.09369 18.266 4.84789 18.266C4.60209 18.266 4.40283 18.0701 4.40283 17.8284Z" fill="#008BF9"/>
<path d="M9.19287 17.8284V10.3718C9.19287 10.1301 9.39213 9.9342 9.63793 9.9342C9.88373 9.9342 10.083 10.1301 10.083 10.3718V17.8284C10.083 18.0701 9.88373 18.266 9.63793 18.266C9.39213 18.266 9.19287 18.0701 9.19287 17.8284Z" fill="#008BF9"/>
<path d="M13.9824 17.8284V10.3718C13.9824 10.1301 14.1817 9.9342 14.4275 9.9342C14.6733 9.9342 14.8725 10.1301 14.8725 10.3718V17.8284C14.8725 18.0701 14.6733 18.266 14.4275 18.266C14.1817 18.266 13.9824 18.0701 13.9824 17.8284Z" fill="#008BF9"/>
<path d="M18.7715 17.8284V10.3718C18.7715 10.1301 18.9707 9.9342 19.2165 9.9342C19.4623 9.9342 19.6616 10.1301 19.6616 10.3718V17.8284C19.6616 18.0701 19.4623 18.266 19.2165 18.266C18.9707 18.266 18.7715 18.0701 18.7715 17.8284Z" fill="#008BF9"/>
<path d="M2.74951 18.2729C2.74951 17.7895 3.14803 17.3976 3.63963 17.3976H20.3383C20.8299 17.3976 21.2284 17.7895 21.2284 18.2729V21.1248C21.2284 21.6082 20.8299 22.0001 20.3383 22.0001H3.63963C3.14803 22.0001 2.74951 21.6082 2.74951 21.1248V18.2729Z" fill="#D2EDFE"/>
<path d="M20.3381 21.1248V22.0001H3.63963V21.1248H20.3381ZM20.3381 21.1248H20.3385V18.2729H3.63963V22.0001C3.14803 22.0001 2.74951 21.6082 2.74951 21.1248V18.2729C2.74951 17.7895 3.14803 17.3976 3.63963 17.3976H20.3381C20.8297 17.3976 21.2287 17.7895 21.2287 18.2729V21.1248L21.2239 21.2141C21.1784 21.6556 20.799 22.0001 20.3381 22.0001V21.1248Z" fill="#008BF9"/>
<path d="M11.458 2.18076C11.7775 1.93975 12.2219 1.93975 12.5414 2.18076L21.6493 9.05002C22.3242 9.55904 21.9581 10.6198 21.1075 10.6198H2.89186C2.0413 10.6198 1.67523 9.55904 2.35013 9.05002L11.458 2.18076Z" fill="#D2EDFE"/>
<path d="M11.4581 2.18086C11.7776 1.9399 12.2221 1.93986 12.5416 2.18086L21.6493 9.05018C22.303 9.54328 21.98 10.5542 21.186 10.617L21.1077 10.62H2.89197L2.81374 10.617C2.04504 10.5564 1.71758 9.60741 2.29001 9.09933L2.34999 9.05018L11.4581 2.18086ZM2.89197 9.74468H21.1077L11.9996 2.87535L2.89197 9.74468Z" fill="#008BF9"/>
<path d="M11.4585 2.18076C11.7781 1.93975 12.2225 1.93974 12.5421 2.18076L21.6497 9.05008C22.3246 9.55908 21.9586 10.6197 21.1082 10.6199H14.4862C14.6256 10.3015 14.7034 9.9508 14.7035 9.58217C14.7035 8.13201 13.5078 6.95641 12.0331 6.95633C10.5583 6.95633 9.36274 8.13196 9.36274 9.58217C9.36276 9.95078 9.44017 10.3015 9.57962 10.6199H2.89241C2.04192 10.6199 1.67576 9.55915 2.35043 9.05008L11.4585 2.18076Z" fill="#D2EDFE"/>
<path d="M11.4585 2.18076C11.7781 1.93975 12.2225 1.93974 12.5421 2.18076L21.6497 9.05008C22.3246 9.55908 21.9586 10.6197 21.1082 10.6199H14.4862C14.6256 10.3015 14.7034 9.9508 14.7035 9.58217C14.7035 8.13201 13.5078 6.95641 12.0331 6.95633C10.5583 6.95633 9.36274 8.13196 9.36274 9.58217C9.36276 9.95078 9.44017 10.3015 9.57962 10.6199H2.89241C2.04192 10.6199 1.67576 9.55915 2.35043 9.05008L11.4585 2.18076ZM15.5892 9.74458H21.1082L12.0005 2.87525H12.0001L2.89198 9.74415L2.89241 9.74458H8.47696C8.47445 9.69073 8.47262 9.63658 8.47262 9.58217C8.47262 7.64856 10.0667 6.08105 12.0331 6.08105C13.9993 6.08116 15.5936 7.64856 15.5936 9.58217L15.5892 9.74458Z" fill="#008BF9"/>
<path d="M15.5401 9.58205C15.5401 11.5194 13.9696 13.0899 12.0322 13.0899C10.0949 13.0899 8.52441 11.5194 8.52441 9.58205C8.52441 7.64473 10.0949 6.07422 12.0322 6.07422C13.9696 6.07422 15.5401 7.64473 15.5401 9.58205Z" fill="#D2EDFE"/>
<path d="M14.7403 9.58205C14.7403 8.08656 13.5277 6.87403 12.0322 6.87403C10.5368 6.87404 9.32424 8.08657 9.32422 9.58205C9.32422 11.0776 10.5368 12.2901 12.0322 12.2901V13.0899C10.0949 13.0899 8.52441 11.5194 8.52441 9.58205C8.52443 7.64474 10.0949 6.07423 12.0322 6.07422C13.9696 6.07422 15.5401 7.64473 15.5401 9.58205C15.5401 11.5194 13.9696 13.0899 12.0322 13.0899V12.2901C13.5278 12.2901 14.7403 11.0776 14.7403 9.58205Z" fill="#008BF9"/>
<path d="M12.2892 8.34923C12.3478 8.35957 12.4037 8.37393 12.457 8.39282C12.5744 8.43454 12.6755 8.49403 12.7603 8.57105C12.8452 8.64484 12.9072 8.73293 12.9464 8.8356L12.6039 8.98476C12.5615 8.87568 12.4914 8.79697 12.3935 8.74884C12.2956 8.70072 12.1765 8.67663 12.0362 8.67661C11.8861 8.67661 11.7686 8.70902 11.6838 8.7732C11.5989 8.83417 11.5564 8.92076 11.5564 9.03305C11.5565 9.09716 11.5905 9.15827 11.659 9.21597C11.7308 9.27051 11.8354 9.31531 11.9724 9.3506L12.2171 9.413C12.377 9.4515 12.511 9.50951 12.6187 9.58652C12.7263 9.66031 12.8079 9.74543 12.8633 9.84167C12.9187 9.93784 12.9463 10.0404 12.9464 10.1494C12.9464 10.2938 12.9073 10.4192 12.829 10.5251C12.7507 10.6309 12.6446 10.7126 12.5109 10.7704C12.4428 10.7981 12.3696 10.8187 12.2914 10.8324V11.332H11.8311V10.8366C11.7404 10.824 11.6567 10.8047 11.5808 10.7755C11.447 10.721 11.3344 10.6502 11.243 10.5635C11.155 10.4769 11.0914 10.3823 11.0522 10.2797L11.3947 10.14C11.4502 10.2491 11.5337 10.3372 11.6446 10.4045C11.7555 10.4719 11.8778 10.5058 12.0115 10.5058C12.1648 10.5058 12.2939 10.4768 12.3983 10.4191C12.5027 10.3581 12.5548 10.273 12.5548 10.1639C12.5547 10.0645 12.5157 9.98425 12.4374 9.9233C12.3624 9.86236 12.2498 9.81263 12.0997 9.77414L11.865 9.71174C11.6431 9.65398 11.4701 9.56698 11.3461 9.45146C11.2221 9.33278 11.1601 9.19983 11.16 9.05228C11.16 8.82446 11.2351 8.6479 11.3852 8.52275C11.4953 8.43063 11.6432 8.37224 11.8289 8.34624V7.83252H12.2892V8.34923Z" fill="#008BF9"/>
</svg>
