<svg width="24" height="24" viewBox="0 0 24 24" fill="none" xmlns="http://www.w3.org/2000/svg">
<path d="M2.00391 8.58942C2.00391 9.35823 2.42412 10.0552 3.07603 10.368L11.3565 14.3401C11.8286 14.5665 12.368 14.5644 12.8386 14.3344L20.9395 10.3723C21.585 10.0565 21.9997 9.36311 21.9997 8.5994V20.0532C21.9997 21.1283 21.1905 21.9999 20.1925 22H3.81152C2.81345 22 2.00391 21.1284 2.00391 20.0532V8.58942Z" fill="#D2EDFE"/>
<path d="M20.1925 21.0266V22H3.81152V21.0266H20.1925ZM21.0961 20.0532V11.3647L13.2123 15.2208H13.2118C12.506 15.5658 11.697 15.569 10.989 15.2293L2.90749 11.3523V20.0532C2.90749 20.5905 3.3122 21.0266 3.81152 21.0266V22C2.81345 22 2.00391 21.1284 2.00391 20.0532V8.58942C2.00391 9.35823 2.42412 10.0552 3.07603 10.368L11.3565 14.3401C11.8286 14.5665 12.368 14.5644 12.8386 14.3344L20.9395 10.3723C21.585 10.0565 21.9997 9.36311 21.9997 8.5994V20.0532C21.9997 21.1283 21.1905 21.9999 20.1925 22V21.0266C20.6916 21.0264 21.0961 20.5905 21.0961 20.0532Z" fill="#008BF9"/>
<path d="M21.0918 6.60709C21.0918 6.33833 20.8895 6.12045 20.64 6.12039H3.35538C3.10586 6.12039 2.90359 6.33829 2.90359 6.60709V10.207C2.90359 10.3961 3.00529 10.5681 3.16434 10.6481L11.8958 15.0351C12.0178 15.0963 12.1589 15.0955 12.2805 15.0332L20.8337 10.6519C20.9911 10.5712 21.0918 10.4001 21.0918 10.2122V6.60709ZM21.9954 10.2122C21.9954 10.7757 21.6943 11.2887 21.2219 11.5307L12.6688 15.9125C12.3037 16.0995 11.88 16.1013 11.5137 15.9173L2.7827 11.5302C2.30534 11.2904 2 10.7744 2 10.207V6.60709C2 5.80069 2.60682 5.14697 3.35538 5.14697H20.64C21.3885 5.14704 21.9954 5.80073 21.9954 6.60709V10.2122Z" fill="#008BF9"/>
<path d="M16.0588 3.94683C16.0588 3.40922 15.6543 2.97341 15.1552 2.97341H8.84868C8.34964 2.97341 7.94509 3.40922 7.94509 3.94683V5.14648H16.0588V3.94683ZM16.9624 6.11989H7.0415V3.94683C7.0415 2.90526 7.80077 2.05457 8.75558 2.00238L8.84868 2H15.1552C16.1533 2 16.9624 2.87162 16.9624 3.94683V6.11989Z" fill="#008BF9"/>
</svg>
