<svg width="24" height="24" viewBox="0 0 24 24" fill="none" xmlns="http://www.w3.org/2000/svg">
<path d="M12.0002 2C14.9429 2.00008 17.3285 4.68607 17.3286 7.9987H6.67188C6.67198 4.68603 9.05753 2.00002 12.0002 2ZM11.8828 2.86973C9.68158 2.93247 7.86936 4.7529 7.50923 7.13066H16.4913C16.1247 4.71078 14.2541 2.8681 12.0002 2.86804L11.8828 2.86973Z" fill="#008BF9"/>
<path d="M19.7022 7.12024L22 20.1549C22 21.1739 21.2538 21.9999 20.3333 22H3.66667C2.74624 21.9999 2 21.1739 2 20.1549L3.90711 7.12024H19.7022Z" fill="#D2EDFE"/>
<path d="M22 20.1548C22 21.1737 21.2538 21.9997 20.3333 21.9998V21.1318C20.7318 21.1317 21.1355 20.7719 21.1638 20.2171L19.0081 7.98828H4.62329L2.83537 20.2056C2.85865 20.767 3.26543 21.1317 3.66667 21.1318V21.9998C2.74624 21.9997 2 21.1737 2 20.1548L3.90715 7.12024H19.7022L22 20.1548ZM20.3333 21.1318V21.9998H3.66667V21.1318H20.3333Z" fill="#008BF9"/>
</svg>
