<svg width="24" height="24" viewBox="0 0 24 24" fill="none" xmlns="http://www.w3.org/2000/svg">
<path d="M12.6265 10.814C14.419 10.814 16.1381 11.5191 17.4056 12.7743C18.1193 13.4812 18.6554 14.3305 18.9889 15.2541C18.9812 15.3018 18.9747 15.3533 18.9694 15.4087C18.8399 16.7466 16.7086 17.3162 14.9925 17.5076H6.7392C6.2582 17.5076 5.8626 17.1199 5.92434 16.6475C6.11508 15.1896 6.78658 13.8251 7.84752 12.7743C9.11495 11.519 10.8341 10.814 12.6265 10.814Z" fill="#D2EDFE"/>
<path d="M12.41 10.3679C14.879 10.3679 16.397 10.9422 17.4217 11.8186C18.4258 12.6773 18.9061 13.7949 19.3593 14.6926C19.4669 14.9056 19.3796 15.1647 19.1645 15.2713C18.9494 15.3779 18.6878 15.2915 18.5802 15.0784C18.0943 14.1161 17.6938 13.1909 16.8526 12.4714C16.032 11.7696 14.7398 11.2306 12.41 11.2305C10.0279 11.2305 8.5375 12.2934 7.61909 13.6113C6.80961 14.7729 6.44165 16.1414 6.33895 17.1668H11.2345C11.4749 17.1669 11.6699 17.3601 11.67 17.5982C11.67 17.8363 11.475 18.0294 11.2345 18.0295H5.42627L5.4386 17.5864C5.47174 16.4131 5.85314 14.6272 6.90247 13.1214C7.96641 11.5947 9.71282 10.3678 12.41 10.3679Z" fill="#008BF9"/>
<path d="M16.492 5.82813C16.492 7.94235 14.7615 9.65626 12.6268 9.65626C10.4922 9.65626 8.76172 7.94235 8.76172 5.82813C8.76172 3.71391 10.4922 2 12.6268 2C14.7615 2 16.492 3.71391 16.492 5.82813Z" fill="#D2EDFE"/>
<path d="M15.6209 5.82808C15.6208 4.19032 14.2804 2.86267 12.6268 2.86267C10.9732 2.86269 9.63275 4.19034 9.63272 5.82808C9.63272 7.46584 10.9732 8.79346 12.6268 8.79349V9.65616C10.4922 9.65613 8.76172 7.94228 8.76172 5.82808C8.76175 3.7139 10.4922 2.00003 12.6268 2C14.7614 2 16.4918 3.71388 16.4919 5.82808C16.4919 7.9423 14.7614 9.65616 12.6268 9.65616V8.79349C14.2804 8.79349 15.6209 7.46586 15.6209 5.82808Z" fill="#008BF9"/>
<path d="M16.492 5.82813C16.492 7.94235 14.7615 9.65626 12.6268 9.65626C10.4922 9.65626 8.76172 7.94235 8.76172 5.82813C8.76172 3.71391 10.4922 2 12.6268 2C14.7615 2 16.492 3.71391 16.492 5.82813Z" fill="#D2EDFE"/>
<path d="M15.6209 5.82808C15.6208 4.19032 14.2804 2.86267 12.6268 2.86267C10.9732 2.86269 9.63275 4.19034 9.63272 5.82808C9.63272 7.46584 10.9732 8.79346 12.6268 8.79349V9.65616C10.4922 9.65613 8.76172 7.94228 8.76172 5.82808C8.76175 3.7139 10.4922 2.00003 12.6268 2C14.7614 2 16.4918 3.71388 16.4919 5.82808C16.4919 7.9423 14.7614 9.65616 12.6268 9.65616V8.79349C14.2804 8.79349 15.6209 7.46586 15.6209 5.82808Z" fill="#008BF9"/>
<path d="M8.00886 2.93408C8.25103 2.93408 8.4861 2.96412 8.71088 3.01975C7.61222 3.33059 6.79823 4.45424 6.79823 5.79324C6.79827 7.13218 7.61227 8.25551 8.71088 8.56635C8.48609 8.62199 8.25105 8.65239 8.00886 8.65239C6.41455 8.65239 5.12211 7.37227 5.12207 5.79324C5.12207 4.21417 6.41453 2.93409 8.00886 2.93408Z" fill="#D2EDFE"/>
<path d="M6.4682 2.92506C7.27457 2.48736 8.17455 2.4209 8.57055 2.47317C8.72659 2.49377 8.8363 2.63557 8.81557 2.79012C8.79476 2.94471 8.65127 3.0534 8.49519 3.03279C8.21029 2.9952 7.43432 3.04492 6.74255 3.42034C6.07451 3.78295 5.48244 4.4479 5.49628 5.68016C5.50732 6.65755 5.9626 7.30632 6.5521 7.72819C7.15228 8.15768 7.89302 8.35059 8.43542 8.38305C8.59259 8.39244 8.71256 8.52631 8.70308 8.68198C8.6936 8.83764 8.55843 8.9561 8.40126 8.94671C7.77374 8.9092 6.92285 8.6904 6.21798 8.18596C5.50243 7.67387 4.93936 6.86654 4.92605 5.68641C4.9096 4.22153 5.63792 3.37574 6.4682 2.92506Z" fill="#008BF9"/>
<path d="M12.6265 10.814C14.419 10.814 16.1381 11.5191 17.4056 12.7743C18.1193 13.4812 18.6554 14.3305 18.9889 15.2541C18.9812 15.3018 18.9747 15.3533 18.9694 15.4087C18.8399 16.7466 16.7086 17.3162 14.9925 17.5076H6.7392C6.2582 17.5076 5.8626 17.1199 5.92434 16.6475C6.11508 15.1896 6.78658 13.8251 7.84752 12.7743C9.11495 11.519 10.8341 10.814 12.6265 10.814Z" fill="#D2EDFE"/>
<path d="M12.6265 10.814C14.419 10.814 16.1381 11.5191 17.4056 12.7743C18.1193 13.4812 18.6554 14.3305 18.9889 15.2541C18.9812 15.3018 18.9747 15.3533 18.9694 15.4087C18.8399 16.7466 16.7086 17.3162 14.9925 17.5076H6.7392C6.2582 17.5076 5.8626 17.1199 5.92434 16.6475C6.11508 15.1896 6.78658 13.8251 7.84752 12.7743C9.11495 11.519 10.8341 10.814 12.6265 10.814Z" fill="#D2EDFE"/>
<path d="M9.08844 10.8142C9.3918 10.8142 9.69316 10.8348 9.99049 10.8744C8.53105 11.069 7.16643 11.7318 6.11351 12.7746C5.05257 13.8254 4.38107 15.1898 4.19033 16.6477C4.12865 17.1201 4.52422 17.5079 5.00519 17.5079H3.2011C2.72022 17.5078 2.32459 17.1201 2.38623 16.6477C2.57697 15.1899 3.24855 13.8254 4.30941 12.7746C5.57681 11.5193 7.29608 10.8143 9.08844 10.8142Z" fill="#D2EDFE"/>
<path d="M12.41 10.3679C14.879 10.3679 16.397 10.9422 17.4217 11.8186C18.4258 12.6773 18.9061 13.7949 19.3593 14.6926C19.4669 14.9056 19.3796 15.1647 19.1645 15.2713C18.9494 15.3779 18.6878 15.2915 18.5802 15.0784C18.0943 14.1161 17.6938 13.1909 16.8526 12.4714C16.032 11.7696 14.7398 11.2306 12.41 11.2305C10.0279 11.2305 8.5375 12.2934 7.61909 13.6113C6.80961 14.7729 6.44165 16.1414 6.33895 17.1668H11.2345C11.4749 17.1669 11.6699 17.3601 11.67 17.5982C11.67 17.8363 11.475 18.0294 11.2345 18.0295H5.42627L5.4386 17.5864C5.47174 16.4131 5.85314 14.6272 6.90247 13.1214C7.96641 11.5947 9.71282 10.3678 12.41 10.3679Z" fill="#008BF9"/>
<path d="M21.2125 14.6832C21.3809 14.5131 21.6565 14.5105 21.8282 14.6772C21.9999 14.844 22.0027 15.1169 21.8343 15.287L15.7305 21.4502L12.8948 18.9637C12.7149 18.8058 12.6982 18.5333 12.8575 18.355C13.0169 18.1767 13.2924 18.1602 13.4725 18.3181L15.6881 20.2606L21.2125 14.6832Z" fill="#008BF9"/>
<path d="M11.4815 10.5243C11.6619 10.5243 11.8081 10.6691 11.8081 10.8478C11.8081 11.0265 11.6619 11.1713 11.4815 11.1713H9.40735C6.98017 11.1713 5.31819 12.2485 4.24683 13.5912C3.27503 14.8092 2.7951 16.2416 2.68642 17.2748H4.51264C4.69303 17.2748 4.83926 17.4197 4.83926 17.5983C4.83918 17.7769 4.69298 17.9218 4.51264 17.9218H2L2.00936 17.5891C2.04267 16.4101 2.56524 14.6551 3.73435 13.1898C4.91319 11.7124 6.75539 10.5243 9.40735 10.5243H11.4815Z" fill="#008BF9"/>
</svg>
