<svg width="24" height="24" viewBox="0 0 24 24" fill="none" xmlns="http://www.w3.org/2000/svg">
<path d="M18.3475 21.1273V21.9997H5.65247V21.1273H18.3475ZM20.1158 19.3825V4.61721C20.1158 3.65358 19.3241 2.8724 18.3475 2.8724H5.65247C4.67586 2.8724 3.88416 3.65358 3.88416 4.61721V19.3825C3.88416 20.3461 4.67586 21.1273 5.65247 21.1273V21.9997L5.51605 21.9963C4.11453 21.9262 3 20.7828 3 19.3825V4.61721C3 3.21691 4.11453 2.07347 5.51605 2.00341L5.65247 2H18.3475C19.8124 2 21 3.17177 21 4.61721V19.3825C21 20.8279 19.8124 21.9997 18.3475 21.9997V21.1273C19.3241 21.1273 20.1158 20.3461 20.1158 19.3825Z" fill="#008BF9"/>
<path d="M3 16.928H21V19.3827C21 20.8281 19.8124 21.9999 18.3475 21.9999H5.65247C4.18755 21.9999 3 20.8281 3 19.3827V16.928Z" fill="#D2EDFE"/>
<path d="M18.3475 21.1277V22.0001H5.65247V21.1277H18.3475ZM20.1158 19.3829V17.8004H3.88416V19.3829C3.88427 20.3464 4.67593 21.1277 5.65247 21.1277V22.0001L5.51605 21.9967C4.15978 21.9289 3.07227 20.8557 3.00345 19.5175L3 19.3829V16.928H21V19.3829L20.9965 19.5175C20.9277 20.8557 19.8402 21.9289 18.484 21.9967L18.3475 22.0001V21.1277C19.3241 21.1277 20.1157 20.3464 20.1158 19.3829Z" fill="#008BF9"/>
<path d="M16.176 5.89551C16.4201 5.89557 16.618 6.09084 16.618 6.33171C16.618 6.57258 16.4201 6.76785 16.176 6.76791H6.78827C6.54412 6.76791 6.34619 6.57262 6.34619 6.33171C6.34619 6.0908 6.54412 5.89551 6.78827 5.89551H16.176Z" fill="#008BF9"/>
<path d="M14.3446 8.95972C14.5887 8.95977 14.7867 9.15505 14.7867 9.39592C14.7867 9.63679 14.5887 9.83206 14.3446 9.83212H6.78827C6.54412 9.83212 6.34619 9.63683 6.34619 9.39592C6.34619 9.15501 6.54412 8.95972 6.78827 8.95972H14.3446Z" fill="#008BF9"/>
</svg>
