<svg width="24" height="24" viewBox="0 0 24 24" fill="none" xmlns="http://www.w3.org/2000/svg">
<path d="M19.0438 5.39861C19.7354 5.25546 20.3125 5.96744 20.0825 6.68018L15.2449 18.7204C15.0149 19.4331 14.1503 19.6121 13.6886 19.0425L12.3033 13.5586C12.2296 13.2667 12.0341 13.0277 11.7736 12.9108L6.97442 10.7585C6.51276 10.1889 6.80028 9.29796 7.49195 9.15481L19.0438 5.39861Z" fill="#D2EDFE"/>
<path d="M19.0437 5.39852C19.7354 5.25537 20.3127 5.96763 20.0827 6.68037L15.2449 18.7206C15.0148 19.4332 14.1502 19.6121 13.6885 19.0426L12.3034 13.5586C12.2296 13.2668 12.0341 13.0276 11.7736 12.9108L6.97436 10.7586L6.9333 10.7043C6.53115 10.1341 6.82187 9.2936 7.49178 9.1548L19.0437 5.39852ZM7.81549 10.0731L12.1274 12.0073C12.6484 12.241 13.0395 12.7192 13.187 13.3029L14.4372 18.2518L19.212 6.36744L7.81549 10.0731Z" fill="#008BF9"/>
<path d="M6.74876 12.9462C6.90343 12.8128 7.12989 12.8388 7.25454 13.0043C7.37914 13.1698 7.35487 13.4122 7.20026 13.5456L4.82493 15.5942C4.67024 15.7276 4.44376 15.7013 4.31913 15.5357C4.19461 15.3702 4.21888 15.1281 4.37343 14.9947L6.74876 12.9462Z" fill="#008BF9"/>
<path d="M11.1479 18.0787C11.2928 17.9348 11.5206 17.9448 11.6565 18.1011C11.7925 18.2575 11.7853 18.501 11.6404 18.645L9.41479 20.8553C9.26985 20.9992 9.04209 20.9889 8.90614 20.8325C8.7703 20.6761 8.77752 20.4329 8.92232 20.289L11.1479 18.0787Z" fill="#008BF9"/>
<path d="M10.236 14.3245C10.378 14.1969 10.5899 14.2168 10.7097 14.3691C10.8294 14.5214 10.8114 14.7485 10.6694 14.8763L5.01392 20.3734C4.87188 20.5012 4.65964 20.481 4.53991 20.3286C4.42021 20.1762 4.43813 19.9491 4.58015 19.8214L10.236 14.3245Z" fill="#008BF9"/>
</svg>
