<svg width="20" height="20" viewBox="0 0 20 20" fill="none" xmlns="http://www.w3.org/2000/svg">
<path d="M18.1096 5.48316C18.3037 5.35961 18.5614 5.41687 18.685 5.61093C18.8085 5.80501 18.7513 6.06268 18.5572 6.18629L11.0645 10.9584C11.0598 10.9615 11.0548 10.9645 11.0499 10.9674C10.7322 11.1519 10.3715 11.2489 10.0042 11.2489C9.63663 11.2489 9.27542 11.152 8.95761 10.9674C8.95274 10.9645 8.94771 10.9614 8.94296 10.9584L1.44296 6.18629C1.24886 6.06273 1.19166 5.80505 1.31519 5.61093C1.43875 5.41683 1.69643 5.35963 1.89055 5.48316L9.38404 10.2512C9.57281 10.359 9.78667 10.4156 10.0042 10.4156C10.2234 10.4156 10.4385 10.3576 10.6283 10.248L18.1096 5.48316Z" fill="#008BF9"/>
<path d="M17.9167 5.0013C17.9167 4.31095 17.357 3.7513 16.6667 3.7513H3.33333C2.64298 3.7513 2.08333 4.31095 2.08333 5.0013V15.0013C2.08333 15.6917 2.64298 16.2513 3.33333 16.2513H16.6667C17.357 16.2513 17.9167 15.6917 17.9167 15.0013V5.0013ZM18.75 15.0013C18.75 16.1519 17.8173 17.0846 16.6667 17.0846H3.33333C2.18274 17.0846 1.25 16.1519 1.25 15.0013V5.0013C1.25 3.85071 2.18274 2.91797 3.33333 2.91797H16.6667C17.8173 2.91797 18.75 3.85071 18.75 5.0013V15.0013Z" fill="#008BF9"/>
</svg>
