<svg width="24" height="24" viewBox="0 0 24 24" fill="none" xmlns="http://www.w3.org/2000/svg">
<path d="M3 6.27341C3 5.34552 3.7398 4.59332 4.65238 4.59332H19.3476C20.2602 4.59332 21 5.34552 21 6.27341V20.3199C21 21.2478 20.2602 22 19.3476 22H4.65239C3.7398 22 3 21.2478 3 20.3199V6.27341Z" fill="#D2EDFE"/>
<path d="M19.3476 21.1599V22H4.65239V21.1599H19.3476ZM20.1738 20.3199V6.27341C20.1738 5.80946 19.8039 5.43336 19.3476 5.43336H4.65239C4.1961 5.43336 3.8262 5.80946 3.8262 6.27341V20.3199C3.8262 20.7838 4.1961 21.1599 4.65239 21.1599V22C3.7398 22 3 21.2478 3 20.3199V6.27341C3 5.34552 3.7398 4.59332 4.65239 4.59332H19.3476C20.2602 4.59332 21 5.34552 21 6.27341V20.3199C21 21.2478 20.2602 22 19.3476 22V21.1599C19.8039 21.1599 20.1738 20.7838 20.1738 20.3199Z" fill="#008BF9"/>
<path d="M8.10156 7.02758C8.10145 7.21098 7.91655 7.35979 7.68847 7.35979C7.46039 7.35979 7.27548 7.21098 7.27537 7.02758L7.27537 2.6618C7.27537 2.47833 7.46032 2.32959 7.68847 2.32959C7.91661 2.32959 8.10156 2.47833 8.10156 2.6618L8.10156 7.02758Z" fill="#008BF9"/>
<path d="M12.4131 7.02758C12.413 7.21098 12.2281 7.35979 12 7.35979C11.7719 7.35979 11.587 7.21098 11.5869 7.02758L11.5869 2.6618C11.5869 2.47833 11.7718 2.32959 12 2.32959C12.2281 2.32959 12.4131 2.47833 12.4131 2.6618L12.4131 7.02758Z" fill="#008BF9"/>
<path d="M16.6934 7.02758C16.6933 7.21098 16.5083 7.35979 16.2803 7.35979C16.0522 7.35979 15.8673 7.21098 15.8672 7.02758L15.8672 2.6618C15.8672 2.47833 16.0521 2.32959 16.2803 2.32959C16.5084 2.32959 16.6934 2.47833 16.6934 2.6618L16.6934 7.02758Z" fill="#008BF9"/>
<path d="M16.0866 10.4904C16.2387 10.3176 16.4999 10.303 16.6699 10.4576C16.8399 10.6123 16.8543 10.8779 16.7022 11.0507L10.9128 17.6271L7.45552 14.7382C7.27927 14.5909 7.25378 14.3259 7.39864 14.1467C7.54349 13.9677 7.80374 13.9418 7.97996 14.0889L10.8252 16.4667L16.0866 10.4904Z" fill="#008BF9"/>
</svg>
