<svg width="24" height="24" viewBox="0 0 24 24" fill="none" xmlns="http://www.w3.org/2000/svg">
<path d="M12.0003 2C17.5229 2.0001 21.9999 6.47709 22 11.9997C22 17.5225 17.523 21.9999 12.0003 22C6.47744 22 2 17.5226 2 11.9997C2.0001 6.47702 6.4775 2 12.0003 2ZM12.4899 6.2974C12.3356 5.82276 11.6644 5.82276 11.5101 6.2974L10.4967 9.41578C10.4276 9.62802 10.2297 9.77154 10.0065 9.77154H6.72814C6.22897 9.77154 6.02138 10.4106 6.42521 10.704L9.07762 12.6313C9.2581 12.7625 9.33367 12.9947 9.26481 13.2069L8.25186 16.3253C8.09762 16.8 8.64058 17.1948 9.04441 16.9015L11.6973 14.9742C11.8778 14.8432 12.1222 14.8432 12.3027 14.9742L14.9556 16.9015C15.3594 17.1948 15.9024 16.8 15.7481 16.3253L14.7352 13.2069C14.6663 12.9947 14.7419 12.7625 14.9224 12.6313L17.5748 10.704C17.9786 10.4106 17.771 9.77154 17.2719 9.77154H13.9935C13.7703 9.77154 13.5724 9.62802 13.5033 9.41578L12.4899 6.2974Z" fill="#E6F3FE"/>
<path d="M20.9694 11.9997C20.9693 7.12365 17.0782 3.15646 12.2317 3.03359L12.0003 3.03057C7.12402 3.03057 3.15647 6.92174 3.03359 11.7683L3.03057 11.9997C3.03057 16.9534 7.04661 20.9694 12.0003 20.9694V22C6.47744 22 2 17.5226 2 11.9997C2.0001 6.47702 6.4775 2 12.0003 2C17.5229 2.0001 21.9999 6.47709 22 11.9997C22 17.5225 17.523 21.9999 12.0003 22V20.9694C16.9538 20.9693 20.9694 16.9534 20.9694 11.9997ZM17.2719 8.74097C18.7695 8.74097 19.3919 10.6577 18.1807 11.5378L15.8312 13.2447L16.7284 16.0068C17.1908 17.43 15.5625 18.6155 14.3502 17.7353H14.3497L11.9997 16.0279L9.65027 17.7353H9.64977C8.43753 18.6155 6.80919 17.43 7.27161 16.0068L8.16832 13.2447L5.81935 11.5378C4.60805 10.6577 5.23046 8.74097 6.72814 8.74097V9.77154C6.22897 9.77154 6.02138 10.4106 6.42521 10.704L9.07762 12.6313C9.2581 12.7625 9.33367 12.9947 9.26481 13.2069L8.25186 16.3253C8.09762 16.8 8.64058 17.1948 9.04441 16.9015L11.6973 14.9742C11.8778 14.8432 12.1222 14.8432 12.3027 14.9742L14.9556 16.9015C15.3594 17.1948 15.9024 16.8 15.7481 16.3253L14.7352 13.2069C14.6663 12.9947 14.7419 12.7625 14.9224 12.6313L17.5748 10.704C17.9786 10.4106 17.771 9.77154 17.2719 9.77154V8.74097ZM10.5777 5.84954C11.0996 4.59786 12.9004 4.59788 13.4223 5.84954L13.4701 5.97887L14.3678 8.74097H17.2719V9.77154H13.9935C13.7703 9.77154 13.5724 9.62802 13.5033 9.41578L12.4899 6.2974C12.3356 5.82276 11.6644 5.82276 11.5101 6.2974L10.4967 9.41578C10.4276 9.62802 10.2297 9.77154 10.0065 9.77154H6.72814V8.74097H9.63216L10.5299 5.97887L10.5777 5.84954Z" fill="#008BF9"/>
</svg>
