<svg width="24" height="24" viewBox="0 0 24 24" fill="none" xmlns="http://www.w3.org/2000/svg">
<path d="M20.8678 17.5355C20.8678 15.7277 19.3988 14.2621 17.5869 14.2621C15.775 14.2621 14.306 15.7277 14.306 17.5355C14.3061 19.3433 15.775 20.809 17.5869 20.809V21.7301L17.3705 21.7242C15.2209 21.6156 13.4973 19.8961 13.3882 17.7514L13.3828 17.5355C13.3828 15.219 15.2651 13.3409 17.5869 13.3409L17.8033 13.3463C20.0245 13.4588 21.791 15.2914 21.791 17.5355L21.7852 17.7514C21.6725 19.9675 19.8361 21.73 17.5869 21.7301V20.809C19.3987 20.8089 20.8677 19.3432 20.8678 17.5355Z" fill="#008BF9"/>
<path d="M13.6304 2.60485C13.8527 2.38044 14.2366 2.53214 14.2449 2.84756L14.4118 9.21275C14.4168 9.4048 14.573 9.55899 14.7655 9.56176L21.1466 9.65351C21.4628 9.65808 21.619 10.0388 21.3967 10.2632L19.2623 12.4174C18.7832 12.2828 18.2779 12.2092 17.7556 12.2092C14.6928 12.2093 12.2099 14.6866 12.2098 17.7424C12.2098 18.2862 12.29 18.8114 12.4365 19.3078L10.3693 21.3951C10.1471 21.6194 9.76373 21.4682 9.75536 21.1529L9.58849 14.7877C9.58345 14.5957 9.42732 14.4415 9.23479 14.4387L2.85368 14.3469C2.53757 14.3423 2.38099 13.9612 2.60313 13.7368L13.6304 2.60485Z" fill="#D2EDFE"/>
<path d="M13.3268 2.20785C13.8463 1.7572 14.669 2.08305 14.7387 2.76559L14.7431 2.835L14.9061 9.06623L21.1539 9.15651C21.9088 9.1675 22.2818 10.0767 21.7508 10.6127L19.6165 12.767C19.4231 12.9622 19.1077 12.9643 18.912 12.7714C18.7163 12.5784 18.7147 12.2632 18.9081 12.068L20.8123 10.1458L14.7582 10.0589C14.298 10.0522 13.9256 9.68411 13.9136 9.22593L13.755 3.18596L3.18643 13.8543L9.24206 13.9417C9.67346 13.948 10.0274 14.2722 10.0798 14.6902L10.0866 14.7751L10.2448 20.8137L12.0823 18.9589C12.2757 18.7636 12.5911 18.7616 12.7868 18.9545C12.9824 19.1475 12.9841 19.4622 12.7907 19.6574L10.7235 21.7447C10.1929 22.2799 9.27714 21.9194 9.25714 21.1661L9.09367 14.9339L2.84635 14.8441C2.0921 14.8331 1.71793 13.9238 2.24891 13.3874L13.2762 2.25542L13.3268 2.20785Z" fill="#008BF9"/>
<path d="M16.3818 15.7724C16.6015 15.6434 16.884 15.7165 17.0133 15.9356L17.8626 17.3745L19.348 16.9917C19.5948 16.9281 19.8468 17.0761 19.9106 17.3223C19.9743 17.5684 19.8259 17.8194 19.5793 17.8832L17.4204 18.4404L16.2181 16.4025C16.0889 16.1833 16.1621 15.9014 16.3818 15.7724Z" fill="#008BF9"/>
</svg>
