<svg width="24" height="24" viewBox="0 0 24 24" fill="none" xmlns="http://www.w3.org/2000/svg">
<path d="M14.774 2C15.4672 2.00003 15.9005 2.72411 15.5541 3.30332L14.1069 5.72075C18.0423 6.6316 20.9719 10.0366 20.9991 14.1067H21V15.816H20.956C20.5603 19.294 17.5055 21.9999 13.7951 22H10.2049C6.49444 22 3.43967 19.2941 3.04398 15.816H3V14.1067H3.00088C3.02825 10.0192 5.98275 6.60209 9.94371 5.70887L8.5044 3.30332C8.15783 2.72408 8.59126 2 9.28452 2H14.774Z" fill="#D2EDFE"/>
<path d="M14.774 2C15.4672 2.00003 15.9005 2.72411 15.5541 3.30332L14.1069 5.72075C18.0423 6.6316 20.9719 10.0366 20.9991 14.1067L21 15.816H20.956C20.5603 19.294 17.5055 21.9999 13.7951 22V21.1311C17.0409 21.131 19.7145 18.7637 20.0607 15.7214L20.0994 15.3807V14.245L20.0985 14.1122C20.0739 10.4508 17.4382 7.38514 13.8967 6.56545L12.7234 6.29393L14.774 2.86888H9.28452L11.3303 6.28841L10.1486 6.55485C6.58424 7.35864 3.92616 10.435 3.9015 14.1122L3.90062 14.245V15.3807L3.93931 15.7214C4.28554 18.7638 6.959 21.1311 10.2049 21.1311V22C6.49444 22 3.43967 19.2941 3.04398 15.816H3V14.1067C3.02737 10.0192 5.98275 6.60209 9.94371 5.70887L8.5044 3.30332C8.15783 2.72408 8.59126 2 9.28452 2H14.774ZM13.7951 21.1311V22H10.2049V21.1311H13.7951Z" fill="#008BF9"/>
<path d="M12.8567 10.2746C13.0299 10.3041 13.1952 10.345 13.3525 10.3989C13.6997 10.5178 13.9983 10.6875 14.2491 10.907C14.4998 11.1175 14.6831 11.3686 14.7988 11.6613L13.7867 12.0866C13.6613 11.7756 13.4542 11.5512 13.165 11.414C12.8758 11.2768 12.5237 11.2081 12.1092 11.208C11.6656 11.208 11.3182 11.3004 11.0675 11.4834C10.8168 11.6572 10.6911 11.9041 10.6911 12.2243C10.6913 12.4071 10.792 12.5813 10.9943 12.7458C11.2064 12.9013 11.5155 13.0291 11.9204 13.1297L12.6435 13.3076C13.1161 13.4174 13.5121 13.5827 13.8303 13.8023C14.1485 14.0127 14.3896 14.2554 14.5535 14.5298C14.7172 14.804 14.7987 15.0964 14.7988 15.4072C14.7988 15.8189 14.6835 16.1763 14.452 16.4783C14.2206 16.7801 13.9071 17.0131 13.5118 17.1777C13.3106 17.2569 13.0944 17.3155 12.8632 17.3544V18.7789H11.5029V17.3666C11.2348 17.3307 10.9876 17.2755 10.7631 17.1923C10.3677 17.0368 10.035 16.8349 9.76505 16.5879C9.50489 16.3411 9.31689 16.0713 9.20117 15.7788L10.2133 15.3803C10.3773 15.6914 10.624 15.9425 10.9519 16.1346C11.2796 16.3267 11.6408 16.4233 12.036 16.4234C12.4892 16.4234 12.8705 16.3407 13.1791 16.1761C13.4877 16.0022 13.6415 15.7596 13.6415 15.4486C13.6414 15.1651 13.5261 14.9363 13.2947 14.7625C13.0729 14.5888 12.7402 14.447 12.2967 14.3373L11.6031 14.1594C10.9473 13.9947 10.4359 13.7466 10.0695 13.4173C9.70318 13.0789 9.51982 12.6998 9.51972 12.2791C9.51972 11.6296 9.74145 11.1262 10.1851 10.7694C10.5104 10.5067 10.9476 10.3402 11.4965 10.2661V8.80139H12.8567V10.2746Z" fill="#008BF9"/>
</svg>
