<svg width="24" height="24" viewBox="0 0 24 24" fill="none" xmlns="http://www.w3.org/2000/svg">
<path d="M3.63232 18.0319C3.63232 17.5908 4.00243 17.2333 4.45898 17.2333H11.6997C12.1562 17.2333 12.5263 17.5908 12.5263 18.0319V21.9297H3.63232V18.0319Z" fill="#D2EDFE"/>
<path d="M4.45898 18.0319V21.1312H11.6999V18.0319H4.45898ZM12.5265 21.9297H3.63232V18.0319C3.63232 17.5908 4.00243 17.2333 4.45898 17.2333H11.6995C12.156 17.2333 12.5265 17.5908 12.5265 18.0319V21.9297Z" fill="#008BF9"/>
<path d="M13.6579 21.2015L13.7003 21.2034C13.9087 21.2239 14.0712 21.3941 14.0712 21.6007C14.0712 21.8074 13.9087 21.9776 13.7003 21.9981L13.6579 22L2.41333 22C2.18505 22 2 21.8212 2 21.6007C2 21.3802 2.18505 21.2015 2.41333 21.2015L13.6579 21.2015Z" fill="#008BF9"/>
<path d="M13.6177 3.13174C14.2619 2.5067 15.3087 2.5045 15.9558 3.12683L18.9012 5.95966C19.5482 6.58199 19.5505 7.59319 18.9062 8.21823L12.614 14.3228C11.9698 14.9479 10.9229 14.9501 10.2759 14.3277L7.3305 11.4949C6.68344 10.8726 6.68117 9.86137 7.32542 9.23633L13.6177 3.13174Z" fill="#D2EDFE"/>
<path d="M10.859 13.7618L10.2758 14.3277L7.33047 11.4949L7.91373 10.9291L10.859 13.7618ZM12.0281 13.7594L18.3204 7.65474C18.6425 7.34221 18.6413 6.83662 18.3178 6.52545L15.3725 3.6927C15.0692 3.40095 14.5902 3.38385 14.2661 3.64043L14.2035 3.69515L7.91119 9.79978C7.5891 10.1123 7.59021 10.6179 7.91373 10.9291L7.33047 11.4949L7.27154 11.4355C6.70279 10.83 6.70073 9.90391 7.26673 9.29604L7.32539 9.23636L13.6177 3.13173C14.2619 2.5067 15.3087 2.5045 15.9558 3.12683L18.9011 5.95959C19.5481 6.58192 19.5504 7.59311 18.9062 8.21815L12.6139 14.3228L12.5524 14.3797C11.9255 14.9291 10.9668 14.9312 10.3375 14.3843L10.2758 14.3277L10.859 13.7618C11.1826 14.073 11.706 14.0719 12.0281 13.7594Z" fill="#008BF9"/>
<path d="M21.7076 16.5013C21.869 16.6572 21.869 16.91 21.7076 17.0659C21.5462 17.2219 21.2845 17.2219 21.1231 17.0659L15.3134 11.454L15.8979 10.8893L21.7076 16.5013Z" fill="#008BF9"/>
</svg>
