<svg width="32" height="32" viewBox="0 0 32 32" fill="none" xmlns="http://www.w3.org/2000/svg">
<path d="M16.0027 2.66504C18.0537 2.66575 20.077 3.1396 21.9151 4.04972C23.7531 4.95984 25.3565 6.2817 26.6004 7.9125C27.8443 9.54329 28.6953 11.4391 29.0871 13.4523C29.4789 15.4656 29.401 17.5422 28.8595 19.5204C28.3179 21.4987 27.3273 23.3254 25.9647 24.8584C24.6021 26.3914 22.9043 27.5895 21.0032 28.3593C19.1021 29.1292 17.049 29.4501 15.0037 29.2971C12.9583 29.1442 10.9758 28.5215 9.21037 27.4774L3.76485 29.2909C3.61814 29.3396 3.46078 29.3465 3.31037 29.3109C3.15996 29.2753 3.02242 29.1985 2.91312 29.0892C2.80382 28.9799 2.72708 28.8424 2.69145 28.692C2.65583 28.5416 2.66274 28.3842 2.71141 28.2375L4.52659 22.7936C3.32756 20.7687 2.6858 18.4625 2.66647 16.1092C2.64713 13.756 3.25092 11.4395 4.41651 9.3951C5.58211 7.3507 7.26798 5.65118 9.30291 4.46915C11.3378 3.28712 13.6494 2.66468 16.0027 2.66504ZM11.3589 9.33902C11.1893 9.34472 11.023 9.38735 10.8716 9.46392C10.7202 9.5405 10.5873 9.64918 10.4822 9.78239C10.1821 10.1341 9.33538 10.9908 9.33538 12.7277C9.33538 14.4678 10.5105 16.1513 10.6755 16.388C10.8389 16.6181 12.9891 20.1884 16.2811 21.7219C16.8922 22.0052 17.5145 22.253 18.1479 22.4653C18.9346 22.732 19.6514 22.697 20.2181 22.607C20.8498 22.507 22.1583 21.7519 22.4333 20.9235C22.705 20.1017 22.705 19.3933 22.6217 19.245C22.54 19.0983 22.3216 19.0083 21.9916 18.8283C21.6649 18.6532 20.0497 17.7982 19.7497 17.6832C19.4497 17.5615 19.2297 17.5065 19.0113 17.8582C18.7913 18.2132 18.1662 19.0099 17.9729 19.245C17.7845 19.4767 17.5895 19.51 17.2645 19.3333C16.9344 19.1583 15.8793 18.7833 14.6242 17.5765C13.6491 16.6414 12.9907 15.4796 12.8007 15.1279C12.6074 14.7729 12.779 14.5845 12.9424 14.4062C13.0924 14.2495 13.2724 13.9961 13.4358 13.7878C13.5975 13.5844 13.6558 13.4377 13.7658 13.1994C13.8725 12.9644 13.8175 12.756 13.7358 12.581C13.6541 12.406 12.9974 10.6608 12.724 9.95241C12.4574 9.26401 12.1857 9.36068 11.9856 9.34735C11.7956 9.33902 11.5773 9.33902 11.3589 9.33902Z" fill="#008BF9"/>
</svg>
