<svg width="24" height="24" viewBox="0 0 24 24" fill="none" xmlns="http://www.w3.org/2000/svg">
<path d="M12.0649 6.26953C15.4795 6.26956 18.2475 8.82997 18.2475 11.9881C18.2475 14.3098 16.7516 16.3083 14.6025 17.204C14.6044 17.2252 14.6065 17.2466 14.6065 17.2682V19.4056C14.6064 19.8251 14.2386 20.1652 13.7851 20.1653H10.3446C9.8911 20.1653 9.52334 19.8251 9.52323 19.4056V17.2682C9.52323 17.2466 9.52491 17.2252 9.52684 17.204C7.3779 16.3082 5.88186 14.3097 5.88184 11.9881C5.88184 8.82995 8.65021 6.26953 12.0649 6.26953Z" fill="#D9D9D9"/>
<path d="M12.0649 6.26953C15.4795 6.26956 18.2475 8.82997 18.2475 11.9881C18.2475 14.3098 16.7516 16.3083 14.6025 17.204C14.6044 17.2252 14.6065 17.2466 14.6065 17.2682V19.4056C14.6064 19.8251 14.2386 20.1652 13.7851 20.1653H10.3446C9.8911 20.1653 9.52334 19.8251 9.52323 19.4056V17.2682C9.52323 17.2466 9.52491 17.2252 9.52684 17.204C7.3779 16.3082 5.88186 14.3097 5.88184 11.9881C5.88184 8.82995 8.65021 6.26953 12.0649 6.26953Z" fill="white"/>
<path d="M13.7851 19.4056V20.1653H10.3446V19.4056H13.7851ZM13.7851 17.2794L13.7843 17.2719C13.7842 17.2706 13.784 17.269 13.7839 17.2675L13.7354 16.7322L14.2652 16.5115C16.0722 15.7582 17.3447 14.1075 17.4225 12.1758L17.4261 11.9881C17.4261 9.29228 15.1002 7.09863 12.2032 7.03072L12.0649 7.02924C9.10386 7.02924 6.70324 9.24953 6.70324 11.9881C6.70326 14.0001 7.99929 15.7339 9.86454 16.5115L10.394 16.7322L10.3454 17.2675C10.3451 17.271 10.3448 17.2737 10.3446 17.2756V20.1653C9.8911 20.1653 9.52334 19.8251 9.52323 19.4056V17.2682C9.52323 17.2466 9.52491 17.2252 9.52684 17.204C7.3779 16.3082 5.88186 14.3097 5.88184 11.9881C5.88184 8.82995 8.65021 6.26953 12.0649 6.26953C15.4795 6.26956 18.2475 8.82997 18.2475 11.9881C18.2475 14.3098 16.7516 16.3083 14.6025 17.204C14.6044 17.2252 14.6065 17.2466 14.6065 17.2682V19.4056C14.6064 19.8251 14.2386 20.1652 13.7851 20.1653V17.2794Z" fill="#008BF9"/>
<path d="M11.939 6.92676C13.3267 6.92681 14.5981 7.43252 15.5577 8.22503C14.7976 7.85024 13.9242 7.61421 13.0027 7.6142C10.0051 7.61425 7.57478 9.86197 7.57478 12.6344C7.57484 14.1235 9.17599 15.7673 10.2896 16.6866C8.38174 16.2083 6.51082 13.8677 6.51074 11.9473C6.51074 9.17482 8.94138 6.92676 11.939 6.92676Z" fill="#D2EDFE"/>
<path d="M14.2232 21.2402L14.2653 21.2421C14.4724 21.2616 14.6339 21.4234 14.6339 21.6201C14.6339 21.8167 14.4724 21.9786 14.2653 21.9981L14.2232 21.9999L9.95172 21.9999C9.72489 21.9999 9.54102 21.8299 9.54102 21.6201C9.54102 21.4103 9.72489 21.2402 9.95172 21.2402L14.2232 21.2402Z" fill="#008BF9"/>
<path d="M3.05506 7.17098C3.16847 6.98932 3.41974 6.92701 3.61617 7.03188L5.68212 8.13509C5.87853 8.23997 5.94588 8.47238 5.83253 8.65405C5.71911 8.83572 5.46785 8.89805 5.27142 8.79315L3.20546 7.68994C3.00904 7.58505 2.94167 7.35266 3.05506 7.17098Z" fill="#008BF9"/>
<path d="M6.054 3.86309C6.23056 3.73142 6.48922 3.75702 6.63161 3.92029L8.1291 5.63782C8.27146 5.8011 8.24376 6.04035 8.06725 6.17204C7.89068 6.30373 7.63202 6.27815 7.48964 6.11484L5.99215 4.39732C5.84978 4.23402 5.87746 3.99479 6.054 3.86309Z" fill="#008BF9"/>
<path d="M6.054 3.86309C6.23056 3.73142 6.48922 3.75702 6.63161 3.92029L8.1291 5.63782C8.27146 5.8011 8.24376 6.04035 8.06725 6.17204C7.89068 6.30373 7.63202 6.27815 7.48964 6.11484L5.99215 4.39732C5.84978 4.23402 5.87746 3.99479 6.054 3.86309Z" fill="#008BF9"/>
<path d="M18.0759 3.86309C17.8993 3.73142 17.6407 3.75702 17.4983 3.92029L16.0008 5.63782C15.8584 5.8011 15.8861 6.04035 16.0626 6.17204C16.2392 6.30373 16.4979 6.27815 16.6402 6.11484L18.1377 4.39732C18.2801 4.23402 18.2524 3.99479 18.0759 3.86309Z" fill="#008BF9"/>
<path d="M20.9449 7.17098C20.8315 6.98932 20.5803 6.92701 20.3838 7.03188L18.3179 8.13509C18.1215 8.23997 18.0541 8.47238 18.1675 8.65405C18.2809 8.83572 18.5321 8.89805 18.7286 8.79315L20.7945 7.68994C20.991 7.58505 21.0583 7.35266 20.9449 7.17098Z" fill="#008BF9"/>
<path d="M11.7051 4.89713V2.37985C11.7051 2.17007 11.889 2 12.1158 2C12.3426 2 12.5265 2.17007 12.5265 2.37985V4.89713C12.5265 5.10691 12.3426 5.27698 12.1158 5.27698C11.889 5.27698 11.7051 5.10691 11.7051 4.89713Z" fill="#008BF9"/>
</svg>
