<svg width="24" height="24" viewBox="0 0 24 24" fill="none" xmlns="http://www.w3.org/2000/svg">
<path d="M12 2C12 2 16.6517 6.47398 20.5 4.38704V13.5455C20.1303 20.7196 12 21.9996 12 21.9996V22C12 22 3.86969 20.72 3.5 13.5459V4.3874C7.3483 6.47434 12 2.00036 12 2.00036V2Z" fill="#D2EDFE"/>
<path d="M12 2C12 2 16.6517 6.47398 20.5 4.38704V13.5455C20.1303 20.7196 12 21.9996 12 21.9996V22C12 22 3.86969 20.72 3.5 13.5459V4.3874C7.3483 6.47434 12 2.00036 12 2.00036V2ZM12 2.96249C11.895 3.04986 11.7746 3.14809 11.6397 3.2532C11.1206 3.65786 10.3826 4.17794 9.51249 4.63187C8.06731 5.3858 6.12658 6.02194 4.20943 5.46495V13.5215C4.3818 16.7605 6.28525 18.6812 8.23773 19.8241C9.21663 20.3971 10.1906 20.7618 10.9227 20.983C11.2875 21.0933 11.5893 21.1671 11.7974 21.2128C11.8802 21.231 11.9481 21.2442 11.999 21.254C12.0501 21.2442 12.1187 21.2309 12.2026 21.2124C12.4107 21.1667 12.7125 21.0929 13.0773 20.9827C13.8094 20.7614 14.7834 20.3967 15.7623 19.8237C17.7147 18.6809 19.6182 16.7602 19.7906 13.5212V5.46459C17.8734 6.02158 15.9327 5.38544 14.4875 4.63151C13.6174 4.17758 12.8794 3.6575 12.3603 3.25285C12.2255 3.14779 12.1049 3.04983 12 2.96249Z" fill="#008BF9"/>
<path d="M12 21.2709C12 21.2709 19.4503 20.1724 19.793 13.7382L19.793 5.4622C16.028 6.54081 12 2.96387 12 2.96387V21.2709Z" fill="white"/>
</svg>
