<svg width="20" height="20" viewBox="0 0 20 20" fill="none" xmlns="http://www.w3.org/2000/svg">
<path d="M16.2493 8.33333C16.2493 6.67573 15.5912 5.08568 14.4191 3.91357C13.247 2.74147 11.657 2.08333 9.99935 2.08333C8.34175 2.08333 6.75169 2.74147 5.57959 3.91357C4.40749 5.08568 3.74935 6.67573 3.74935 8.33333C3.74935 10.2733 4.8329 12.3051 6.16553 14.056C7.47904 15.7818 8.98472 17.1703 9.75439 17.8361C9.82561 17.888 9.91113 17.9167 9.99935 17.9167L10.0661 17.911C10.1301 17.9006 10.1905 17.8745 10.2435 17.8361C11.013 17.1704 12.5194 15.7821 13.8332 14.056C15.1658 12.3051 16.2493 10.2733 16.2493 8.33333ZM17.0827 8.33333C17.0827 10.5542 15.8584 12.77 14.4956 14.5605C13.1232 16.3637 11.5579 17.8033 10.7725 18.4814C10.7654 18.4875 10.7579 18.493 10.7505 18.4985C10.5609 18.6411 10.3353 18.7269 10.1003 18.7459L9.99935 18.75C9.72835 18.75 9.46481 18.6614 9.24821 18.4985C9.24079 18.493 9.23327 18.4875 9.22624 18.4814C8.44078 17.8033 6.87549 16.3637 5.50309 14.5605C4.14031 12.77 2.91602 10.5542 2.91602 8.33333C2.91602 6.45472 3.66201 4.65276 4.9904 3.32438C6.31878 1.996 8.12073 1.25 9.99935 1.25C11.878 1.25 13.6799 1.996 15.0083 3.32438C16.3367 4.65276 17.0827 6.45472 17.0827 8.33333Z" fill="#008BF9"/>
<path d="M12.084 8.33464C12.084 7.18404 11.1512 6.2513 10.0007 6.2513C8.85006 6.2513 7.91732 7.18404 7.91732 8.33464C7.91732 9.48523 8.85006 10.418 10.0007 10.418C11.1512 10.418 12.084 9.48523 12.084 8.33464ZM12.9173 8.33464C12.9173 9.94547 11.6115 11.2513 10.0007 11.2513C8.38982 11.2513 7.08398 9.94547 7.08398 8.33464C7.08398 6.7238 8.38982 5.41797 10.0007 5.41797C11.6115 5.41797 12.9173 6.7238 12.9173 8.33464Z" fill="#008BF9"/>
</svg>
