<svg width="24" height="24" viewBox="0 0 24 24" fill="none" xmlns="http://www.w3.org/2000/svg">
<path d="M14.335 13.2071C14.335 12.7206 14.737 12.3262 15.233 12.3262H21.1022C21.5982 12.3262 22.0002 12.7206 22.0002 13.2071V19.3571C22.0002 20.8166 20.794 21.9997 19.306 21.9997H17.0292C15.5412 21.9997 14.335 20.8166 14.335 19.3571V13.2071Z" fill="#D2EDFE"/>
<path d="M19.306 21.119V21.9999H17.0292V21.119H19.306ZM21.1022 19.3569V13.2071H15.233V19.3573C15.2332 20.3302 16.0373 21.119 17.0292 21.119V21.9999L16.8906 21.9965C15.513 21.928 14.4084 20.8444 14.3385 19.4932L14.335 19.3573V13.2071C14.335 12.7206 14.737 12.3262 15.233 12.3262H21.1022C21.5982 12.3262 22.0002 12.7206 22.0002 13.2071V19.3569C22.0002 20.7708 20.8682 21.9258 19.4446 21.9965L19.306 21.9999V21.119C20.298 21.119 21.1022 20.3299 21.1022 19.3569Z" fill="#008BF9"/>
<path d="M20.1597 2.09845L21.7169 7.5291L18.1675 10.2169L14.6182 7.5291L16.1753 2.09845H20.1597ZM15.6469 7.1949L18.1675 9.10376L20.6881 7.1949L19.4796 2.97933H16.8559L15.6469 7.1949Z" fill="#008BF9"/>
<path d="M18.612 9.64465V12.6559H17.7139V9.64465H18.612Z" fill="#008BF9"/>
<path d="M9.45781 2.73419C10.5228 3.29181 12.6524 5.15825 12.6524 8.16211C12.6523 11.1658 10.5228 12.1898 9.45781 12.3264V20.2102C9.47272 20.5702 9.11219 21.2897 7.55104 21.2897C5.98977 21.2897 5.62935 20.5702 5.64427 20.2102V12.3264C4.57934 12.1899 2.4493 11.1659 2.44922 8.16211C2.44922 5.1582 4.57932 3.29177 5.64427 2.73419V7.08221C5.64433 8.07532 6.91546 8.216 7.55104 8.16211C8.18666 8.21597 9.45775 8.07525 9.45781 7.08221V2.73419Z" fill="#D2EDFE"/>
<path d="M9.00838 2L9.66923 2.34581C10.8272 2.95221 13.1011 4.94425 13.1011 8.16228C13.101 9.77663 12.5243 10.8976 11.7706 11.632C11.1735 12.2138 10.4787 12.5399 9.90646 12.6867V20.1922L9.9069 20.2546C9.89962 20.5686 9.74126 20.939 9.37761 21.2275C8.98974 21.5352 8.39729 21.7303 7.55075 21.7303C6.70414 21.7303 6.11174 21.5353 5.72389 21.2275C5.34299 20.9253 5.18822 20.5332 5.19547 20.2103H5.19504V12.6867C4.62284 12.5399 3.92802 12.2138 3.3309 11.632C2.60062 10.9205 2.03633 9.84629 2.00175 8.31196L2 8.16228C2 4.94401 4.27485 2.95205 5.43271 2.34581L6.09312 2V7.08226C6.09314 7.22986 6.13732 7.32446 6.19749 7.39538C6.26405 7.47375 6.37087 7.54647 6.52287 7.60485C6.83456 7.72456 7.2362 7.74653 7.51216 7.72313L7.55075 7.72012L7.58934 7.72313C7.86527 7.74652 8.26696 7.72449 8.57863 7.60485C8.73063 7.54647 8.83745 7.47375 8.90401 7.39538C8.96424 7.32445 9.00836 7.22993 9.00838 7.08226V2ZM9.90646 7.08226C9.90644 7.43094 9.7921 7.72625 9.59424 7.95927C9.40259 8.1849 9.15145 8.33089 8.90621 8.42508C8.4404 8.60396 7.9104 8.62894 7.55075 8.60315C7.19107 8.62893 6.66105 8.60397 6.19529 8.42508C5.95007 8.33089 5.69934 8.18489 5.5077 7.95927C5.30979 7.72623 5.19506 7.43099 5.19504 7.08226V3.55874C4.18598 4.34925 2.89808 5.91569 2.89808 8.16228L2.90378 8.41691C2.95958 9.66174 3.42233 10.4796 3.96368 11.0071C4.55322 11.5815 5.25852 11.8328 5.7024 11.8897L6.09312 11.94V20.2193L6.09268 20.2283C6.09137 20.2624 6.11025 20.4012 6.2887 20.5428C6.46763 20.6847 6.83626 20.8494 7.55075 20.8494C8.26529 20.8494 8.63385 20.6843 8.8128 20.5423C8.99161 20.4004 9.01021 20.2616 9.00882 20.2279L9.00838 20.2193V11.94L9.39954 11.8897C9.84344 11.8327 10.5485 11.5814 11.1378 11.0071C11.7151 10.4445 12.2029 9.5514 12.203 8.16228C12.203 5.91546 10.9154 4.34875 9.90646 3.55831V7.08226Z" fill="#008BF9"/>
</svg>
