<svg width="24" height="24" viewBox="0 0 24 24" fill="none" xmlns="http://www.w3.org/2000/svg">
<path d="M22 14.6159V18.7178L17.7121 22.0001L13.4243 18.7178V14.6159L17.7121 11.3336L22 14.6159ZM14.4254 15.1314V18.2019L17.7121 20.7178L20.9989 18.2019V15.1314L17.7121 12.6154L14.4254 15.1314Z" fill="#008BF9"/>
<path d="M8.91504 2C9.76109 2 10.4473 2.70457 10.4473 3.57324V4.54688H17.3193C19.0112 4.54701 20.3826 5.95532 20.3828 7.69238V12.1201L17.7119 10.0762L12.4131 14.1318V18.1514H5.06348C3.37165 18.1512 2.00019 16.7429 2 15.0059V3.57324C2 2.70457 2.68618 2 3.53223 2H8.91504Z" fill="#D2EDFE"/>
<path d="M8.91504 2C9.76109 2 10.4473 2.70457 10.4473 3.57324V4.54688H17.3193C19.0112 4.54701 20.3826 5.95532 20.3828 7.69238V12.1201L19.6172 11.5342V7.69238C19.617 6.43035 18.6514 5.40019 17.4375 5.33691L17.3193 5.33398H9.68164V3.57324C9.68164 3.16601 9.37946 2.83123 8.99316 2.79102L8.91504 2.78613H3.53223C3.1092 2.78613 2.76563 3.13891 2.76562 3.57324V15.0059C2.76582 16.3086 3.79474 17.365 5.06348 17.3652H12.4131V18.1514H5.06348C3.37165 18.1512 2.00019 16.7429 2 15.0059V3.57324C2 2.70457 2.68618 2 3.53223 2H8.91504Z" fill="#008BF9"/>
</svg>
