<svg width="24" height="24" viewBox="0 0 24 24" fill="none" xmlns="http://www.w3.org/2000/svg">
<path d="M17.2706 2C18.222 2 18.9938 2.76469 18.9938 3.70798V10.5041C18.054 9.9249 16.9451 9.59006 15.7572 9.59002C12.3664 9.59002 9.61731 12.3155 9.61731 15.6772C9.61736 17.1404 10.1383 18.4829 11.0061 19.5327H4.72278C3.77138 19.5327 3.00011 18.7679 3 17.8247V3.70798C3 2.76469 3.77131 2 4.72278 2H17.2706Z" fill="#D2EDFE"/>
<path d="M17.2706 2C18.222 2 18.9938 2.76469 18.9938 3.70798V10.5041C18.7222 10.3367 18.4363 10.1906 18.1387 10.0662V7.7782H18.1324V3.70798C18.1324 3.23661 17.7466 2.85399 17.2706 2.85399H4.72278C4.24705 2.85399 3.86139 3.23634 3.86139 3.70798V17.8247C3.8615 18.2964 4.24725 18.6787 4.72278 18.6787H9.44444C9.44262 18.6749 9.44079 18.6712 9.43897 18.6674H10.4089C10.5832 18.9732 10.783 19.2627 11.0061 19.5327H4.72278C3.77138 19.5327 3.00011 18.7679 3 17.8247V3.70798C3 2.76469 3.77131 2 4.72278 2H17.2706Z" fill="#008BF9"/>
<path d="M9.18711 7.75366C9.42488 7.75377 9.6178 7.9449 9.6178 8.18066C9.6178 8.41641 9.42488 8.60754 9.18711 8.60765H6.25931C6.02144 8.60765 5.82861 8.41648 5.82861 8.18066C5.82861 7.94483 6.02144 7.75366 6.25931 7.75366H9.18711Z" fill="#008BF9"/>
<path d="M11.079 4.9502C11.3167 4.95031 11.5097 5.14144 11.5097 5.37719C11.5097 5.61294 11.3167 5.80407 11.079 5.80419H6.25931C6.02144 5.80419 5.82861 5.61301 5.82861 5.37719C5.82861 5.14137 6.02144 4.9502 6.25931 4.9502H11.079Z" fill="#008BF9"/>
<path d="M15.7912 11.2066C18.2151 11.2675 20.1612 13.2348 20.1612 15.6526L20.1597 15.7673C20.1299 16.9345 19.6452 17.9887 18.8765 18.7656L20.92 21.3872C21.0493 21.5533 21.0186 21.7922 20.8511 21.9205C20.6836 22.0488 20.4427 22.0181 20.3132 21.8522L18.2948 19.2621C17.5577 19.7888 16.6534 20.0997 15.6755 20.0998L15.5595 20.0983C13.174 20.0383 11.2514 18.1322 11.191 15.7673L11.1895 15.6526C11.1895 13.1964 13.198 11.2051 15.6755 11.2051L15.7912 11.2066ZM15.6755 11.9651C13.6214 11.9651 11.9561 13.6162 11.9561 15.6526C11.9562 17.689 13.6215 19.3397 15.6755 19.3397C17.7294 19.3396 19.3945 17.6889 19.3946 15.6526C19.3946 13.6162 17.7295 11.9652 15.6755 11.9651Z" fill="#008BF9"/>
</svg>
