<svg width="24" height="24" viewBox="0 0 24 24" fill="none" xmlns="http://www.w3.org/2000/svg">
<path d="M20.0463 13.2118C20.0463 14.7083 18.8474 15.9215 17.3684 15.9215C15.8894 15.9215 14.6904 14.7083 14.6904 13.2118C14.6904 11.7153 15.8894 10.5021 17.3684 10.5021C18.8474 10.5021 20.0463 11.7153 20.0463 13.2118Z" fill="#D2EDFE"/>
<path d="M19.161 13.212C19.161 12.2103 18.3585 11.3981 17.3686 11.398C16.3786 11.398 15.5758 12.2103 15.5758 13.212C15.5759 14.2137 16.3787 15.0256 17.3686 15.0256V15.9215L17.2307 15.918C15.8613 15.8478 14.7632 14.7368 14.6939 13.3511L14.6904 13.212C14.6904 11.7155 15.8896 10.5021 17.3686 10.5021L17.5061 10.5056C18.9211 10.5781 20.0463 11.7622 20.0463 13.212L20.0429 13.3511C19.9712 14.7828 18.8013 15.9214 17.3686 15.9215V15.0256C18.3584 15.0255 19.1608 14.2136 19.161 13.212Z" fill="#008BF9"/>
<path d="M9.30951 4.70973C9.30951 6.20627 8.11055 7.41945 6.63156 7.41945C5.15257 7.41945 3.95361 6.20627 3.95361 4.70973C3.95361 3.21319 5.15257 2 6.63156 2C8.11055 2 9.30951 3.21319 9.30951 4.70973Z" fill="#D2EDFE"/>
<path d="M8.42414 4.70994C8.42414 3.70826 7.62169 2.896 6.63178 2.89588C5.64177 2.89588 4.83899 3.70818 4.83899 4.70994C4.8391 5.7116 5.64184 6.52357 6.63178 6.52357V7.41945L6.49387 7.41595C5.12447 7.34577 4.02643 6.2347 3.95707 4.84905L3.95361 4.70994C3.95361 3.2134 5.15279 2 6.63178 2L6.76925 2.0035C8.18426 2.07602 9.30951 3.26013 9.30951 4.70994L9.30605 4.84905C9.23439 6.28077 8.06449 7.41934 6.63178 7.41945V6.52357C7.62162 6.52345 8.42402 5.71153 8.42414 4.70994Z" fill="#008BF9"/>
<path d="M21.9997 21.9999C21.9997 21.2922 21.8799 20.5916 21.6471 19.9378C21.4143 19.284 21.0732 18.69 20.6431 18.1896C20.213 17.6893 19.7024 17.2924 19.1405 17.0216C18.5785 16.7508 17.9762 16.6114 17.368 16.6114C16.7598 16.6114 16.1575 16.7508 15.5955 17.0216C15.0336 17.2924 14.523 17.6893 14.0929 18.1896C13.6628 18.69 13.3217 19.284 13.0889 19.9378C12.8561 20.5916 12.7363 21.2922 12.7363 21.9999L17.368 21.9999H21.9997Z" fill="#D2EDFE"/>
<path d="M11.2633 13.4978C11.2633 12.7902 11.1435 12.0895 10.9108 11.4357C10.678 10.782 10.3368 10.1879 9.90676 9.68756C9.47667 9.1872 8.96607 8.79028 8.40413 8.51949C7.84219 8.24869 7.23991 8.10931 6.63167 8.10931C6.02343 8.10931 5.42115 8.24869 4.85921 8.51949C4.29727 8.79028 3.78668 9.1872 3.35658 9.68757C2.92649 10.1879 2.58533 10.782 2.35256 11.4357C2.1198 12.0895 2 12.7902 2 13.4978L6.63167 13.4978H11.2633Z" fill="#D2EDFE"/>
<path d="M17.5959 16.6179C18.1263 16.6483 18.6489 16.7849 19.1406 17.0218C19.7025 17.2926 20.2132 17.6893 20.6433 18.1896C21.0733 18.69 21.4144 19.2842 21.6471 19.9379C21.8799 20.5916 21.9999 21.2924 21.9999 22H17.3681V20.97H21.0077C20.9623 20.7529 20.903 20.5396 20.8292 20.3322C20.6409 19.8034 20.3648 19.3226 20.0169 18.9179C19.669 18.5133 19.2561 18.1924 18.8017 17.9734C18.3472 17.7544 17.86 17.6414 17.3681 17.6414C16.8762 17.6414 16.3891 17.7544 15.9346 17.9734C15.48 18.1924 15.0668 18.5132 14.7189 18.9179C14.371 19.3226 14.0953 19.8034 13.907 20.3322C13.8332 20.5396 13.7739 20.7529 13.7285 20.97H17.3681V22H12.7363C12.7363 21.3808 12.828 20.7667 13.007 20.1849L13.0891 19.9379C13.2928 19.3659 13.5794 18.8396 13.936 18.3818L14.0929 18.1896C14.4693 17.7518 14.9072 17.3932 15.3873 17.1289L15.5956 17.0218C16.1576 16.751 16.7599 16.6114 17.3681 16.6114L17.5959 16.6179Z" fill="#008BF9"/>
<path d="M6.85961 8.11585C7.38998 8.14625 7.91262 8.2828 8.40425 8.51972C8.96613 8.79052 9.47692 9.18726 9.90697 9.68757C10.337 10.1879 10.678 10.7821 10.9108 11.4358C11.1435 12.0896 11.2636 12.7903 11.2636 13.4979H6.63178V12.4679H10.2714C10.226 12.2508 10.1667 12.0375 10.0929 11.8301C9.90459 11.3014 9.62842 10.8206 9.28055 10.4158C8.93271 10.0112 8.51977 9.69031 8.06532 9.4713C7.61083 9.25229 7.12371 9.13937 6.63178 9.13936C6.13985 9.13936 5.65272 9.25231 5.19824 9.4713C4.74371 9.69034 4.33045 10.0111 3.98258 10.4158C3.6347 10.8206 3.35897 11.3014 3.1707 11.8301C3.09688 12.0375 3.03754 12.2508 2.99215 12.4679H6.63178V13.4979H2C2 12.8787 2.09172 12.2646 2.27063 11.6828L2.35277 11.4358C2.55643 10.8638 2.84305 10.3375 3.19966 9.8797L3.35659 9.68757C3.73292 9.24975 4.17086 8.89108 4.65093 8.62685L4.8593 8.51972C5.42124 8.24893 6.02354 8.10931 6.63178 8.10931L6.85961 8.11585Z" fill="#008BF9"/>
<path d="M18.3967 8.6961V6.67644C18.379 5.90779 18.1076 5.47858 17.8187 5.23419C17.4919 4.95779 17.0869 4.87155 16.8274 4.87812H13.0408C12.7963 4.87812 12.5981 4.67757 12.5981 4.43018C12.5982 4.18281 12.7964 3.98224 13.0408 3.98224H16.8888C17.3156 3.9896 17.8975 4.13306 18.3868 4.54697C18.926 5.00309 19.303 5.74531 19.2821 6.84441V8.6961C19.282 8.94339 19.0838 9.144 18.8394 9.14404C18.595 9.14404 18.3968 8.94341 18.3967 8.6961Z" fill="#008BF9"/>
<path d="M5.61255 15.3813V17.401C5.63028 18.1696 5.90166 18.5988 6.19055 18.8432C6.51741 19.1196 6.92239 19.2058 7.18184 19.1993H10.9684C11.2129 19.1993 11.4111 19.3998 11.4111 19.6472C11.4111 19.8946 11.2129 20.0952 10.9684 20.0952H7.12045C6.69364 20.0878 6.1118 19.9443 5.62249 19.5304C5.08331 19.0743 4.70631 18.3321 4.72717 17.233V15.3813C4.72726 15.134 4.92546 14.9334 5.16986 14.9334C5.41429 14.9334 5.61246 15.134 5.61255 15.3813Z" fill="#008BF9"/>
</svg>
