<svg width="20" height="20" viewBox="0 0 20 20" fill="none" xmlns="http://www.w3.org/2000/svg">
<path d="M7.08333 3.33333C7.08333 3.00181 6.95154 2.68396 6.71712 2.44954C6.4827 2.21512 6.16485 2.08333 5.83333 2.08333H3.33333C3.00181 2.08333 2.68396 2.21512 2.44954 2.44954C2.21512 2.68396 2.08333 3.00181 2.08333 3.33333C2.08333 7.20107 3.62008 10.9101 6.35498 13.645C9.08989 16.3799 12.7989 17.9167 16.6667 17.9167C16.9982 17.9167 17.316 17.7849 17.5505 17.5505C17.7849 17.316 17.9167 16.9982 17.9167 16.6667V14.1667C17.9167 13.8351 17.7849 13.5173 17.5505 13.2829C17.316 13.0485 16.9982 12.9167 16.6667 12.9167H14.1667C13.9726 12.9167 13.7812 12.9617 13.6076 13.0485C13.4341 13.1353 13.2829 13.2612 13.1665 13.4163L13.1649 13.4196L12.8687 13.807C12.6967 14.0327 12.453 14.193 12.1777 14.2619C11.9021 14.3307 11.6107 14.3039 11.3525 14.1854L11.3428 14.1805C8.94569 13.0039 7.00554 11.0667 5.82601 8.67106L5.8252 8.66943C5.69871 8.40999 5.66597 8.11453 5.73242 7.83366C5.79896 7.5527 5.96111 7.30331 6.19059 7.12809L6.19303 7.12565L6.58366 6.8335C6.73884 6.71708 6.86474 6.56594 6.9515 6.39242C7.03828 6.21885 7.08333 6.02739 7.08333 5.83333V3.33333ZM7.91667 5.83333C7.91667 6.15676 7.84158 6.47585 7.69694 6.76514C7.5523 7.05442 7.34207 7.30594 7.08333 7.5L6.69515 7.78971L6.69596 7.79053C6.6196 7.84892 6.56594 7.93216 6.54378 8.02572C6.5218 8.11873 6.53239 8.21634 6.57389 8.30241L6.78792 8.71582C7.89776 10.7529 9.61267 12.4004 11.7008 13.4277L11.7668 13.4521C11.8345 13.4703 11.9063 13.4709 11.9751 13.4538C12.067 13.4308 12.1489 13.3769 12.2062 13.3016L12.5 12.9167L12.5757 12.8223C12.7578 12.6067 12.9817 12.4296 13.2349 12.3031C13.5241 12.1584 13.8432 12.0833 14.1667 12.0833H16.6667C17.2192 12.0833 17.7489 12.303 18.1396 12.6937C18.5303 13.0844 18.75 13.6141 18.75 14.1667V16.6667C18.75 17.2192 18.5303 17.7489 18.1396 18.1396C17.7489 18.5303 17.2192 18.75 16.6667 18.75C12.5779 18.75 8.65697 17.1254 5.76579 14.2342C2.8746 11.343 1.25 7.42209 1.25 3.33333C1.25 2.7808 1.46965 2.25105 1.86035 1.86035C2.25105 1.46965 2.7808 1.25 3.33333 1.25H5.83333C6.38587 1.25 6.91561 1.46965 7.30631 1.86035C7.69702 2.25105 7.91667 2.7808 7.91667 3.33333V5.83333Z" fill="#008BF9"/>
</svg>
