<svg width="24" height="24" viewBox="0 0 24 24" fill="none" xmlns="http://www.w3.org/2000/svg">
<path d="M3.87939 5.06451H20.2358V18.4028H3.87939V5.06451Z" fill="#D2EDFE"/>
<path d="M20.236 5.06451V18.4031H3.87939V5.06451H20.236ZM4.80678 17.4606H19.3086V6.00695H4.80678V17.4606Z" fill="#008BF9"/>
<path d="M20.1452 5.01597V5.9584H3.85478V5.01597H20.1452ZM21.0726 4.07354V3.88486C21.0726 3.36437 20.6574 2.94243 20.1452 2.94243H3.85478C3.3426 2.94243 2.92739 3.36437 2.92739 3.88486V4.07354C2.92739 4.59403 3.3426 5.01597 3.85478 5.01597V5.9584C2.86246 5.9584 2.05199 5.16649 2.00226 4.17063L2 4.07354V3.88486C2 2.84388 2.83041 2 3.85478 2H20.1452L20.2408 2.0023C21.2207 2.05283 22 2.87645 22 3.88486V4.07354L21.9977 4.17063C21.9496 5.13434 21.1891 5.9072 20.2408 5.9561L20.1452 5.9584V5.01597C20.6574 5.01597 21.0726 4.59403 21.0726 4.07354Z" fill="#008BF9"/>
<path d="M21.5363 17.4604C21.7924 17.4604 22 17.6714 22 17.9316C22 18.1918 21.7924 18.4028 21.5363 18.4028H2.46369C2.2076 18.4028 2 18.1918 2 17.9316C2 17.6714 2.2076 17.4604 2.46369 17.4604H21.5363Z" fill="#008BF9"/>
<path d="M12.4907 21.5287C12.4907 21.7889 12.2831 21.9999 12.027 21.9999C11.771 21.9999 11.5634 21.7889 11.5633 21.5287L11.5633 18.3521C11.5633 18.0919 11.7709 17.8809 12.027 17.8809C12.2831 17.8809 12.4907 18.0919 12.4907 18.3521L12.4907 21.5287Z" fill="#008BF9"/>
</svg>
