<svg width="24" height="24" viewBox="0 0 24 24" fill="none" xmlns="http://www.w3.org/2000/svg">
<path d="M13.6786 3.39044C13.8867 2.75763 14.7924 2.75763 15.0004 3.39045L16.1132 6.77593C16.2063 7.05893 16.4731 7.25054 16.7741 7.25054H20.3754C21.0485 7.25054 21.3284 8.10199 20.7838 8.49309L17.8703 10.5854C17.6268 10.7603 17.5249 11.0704 17.6179 11.3534L18.7308 14.7389C18.9388 15.3717 18.206 15.8979 17.6614 15.5068L14.748 13.4145C14.5044 13.2395 14.1746 13.2396 13.9311 13.4145L11.0176 15.5068C10.473 15.8979 9.74025 15.3717 9.94826 14.7389L11.0611 11.3534C11.1541 11.0704 11.0522 10.7603 10.8087 10.5854L7.8952 8.49309C7.3506 8.10199 7.63049 7.25054 8.30364 7.25054H11.9049C12.206 7.25054 12.4728 7.05893 12.5658 6.77593L13.6786 3.39044Z" fill="#D2EDFE"/>
<path d="M20.3753 6.33474C21.946 6.33474 22.5992 8.32167 21.3285 9.23424L18.5512 11.2287L19.6117 14.4559C20.097 15.9325 18.3874 17.1604 17.1167 16.2478L14.3394 14.2529L11.5621 16.2478C10.2914 17.1604 8.58177 15.9325 9.06713 14.4559L10.1276 11.2287L7.35073 9.23424C6.08004 8.32169 6.73287 6.33482 8.30348 6.33474V7.25056C7.63042 7.25064 7.35046 8.10217 7.89497 8.49327L10.8084 10.5856C11.052 10.7605 11.1539 11.0704 11.0609 11.3534L9.94841 14.739C9.74042 15.3718 10.4728 15.8979 11.0174 15.5068L13.9309 13.4145C14.1744 13.2396 14.5044 13.2396 14.7479 13.4145L17.6614 15.5068C18.1889 15.8857 18.893 15.4038 18.7476 14.798L18.7308 14.739L17.6179 11.3534C17.5249 11.0704 17.6268 10.7605 17.8704 10.5856L20.7838 8.49327C21.3284 8.10217 21.0485 7.25056 20.3753 7.25056V6.33474ZM12.8474 2.9733C13.3948 1.67555 15.2839 1.67558 15.8314 2.9733L15.8816 3.10746L16.9425 6.33474H20.3753V7.25056H16.7742L16.7181 7.24833C16.4589 7.22773 16.2327 7.06526 16.1327 6.82798L16.1132 6.77611L15.0003 3.39052C14.7923 2.7577 13.8865 2.7577 13.6784 3.39052L12.5655 6.77611L12.5461 6.82798C12.4461 7.06527 12.2199 7.22777 11.9607 7.24833L11.905 7.25056H8.30348V6.33474H11.7367L12.7976 3.10746L12.8474 2.9733Z" fill="#008BF9"/>
<path d="M5.81551 10.7428L5.84926 10.7097C6.02448 10.5551 6.29312 10.5537 6.47 10.7136C6.64689 10.8735 6.66944 11.1381 6.52932 11.3244L6.49892 11.3605L2.93516 15.2126C2.76241 15.3994 2.46939 15.4125 2.28067 15.2419C2.09195 15.0713 2.079 14.7817 2.25175 14.5949L5.81551 10.7428Z" fill="#008BF9"/>
<path d="M14.6432 17.0791L14.6769 17.046C14.8521 16.8914 15.1208 16.89 15.2976 17.0499C15.4745 17.2098 15.4971 17.4744 15.357 17.6607L15.3266 17.6968L11.7628 21.5489C11.59 21.7357 11.297 21.7488 11.1083 21.5782C10.9196 21.4076 10.9066 21.118 11.0794 20.9313L14.6432 17.0791Z" fill="#008BF9"/>
<path d="M6.90708 16.2467C7.07984 16.0601 7.3729 16.0469 7.56157 16.2174C7.75023 16.3879 7.76308 16.6776 7.59048 16.8644L3.22031 21.5881C3.04757 21.7748 2.75454 21.7879 2.56582 21.6174C2.37711 21.4468 2.36416 21.1572 2.53691 20.9704L6.90708 16.2467Z" fill="#008BF9"/>
</svg>
