<svg width="28" height="28" viewBox="0 0 28 28" fill="none" xmlns="http://www.w3.org/2000/svg">
<path d="M8 0.5H20C24.1421 0.5 27.5 3.85786 27.5 8V20C27.5 24.1421 24.1421 27.5 20 27.5H8C3.85786 27.5 0.5 24.1421 0.5 20V8L0.509766 7.61426C0.704063 3.77915 3.77915 0.704063 7.61426 0.509766L8 0.5Z" stroke="white"/>
<path d="M15.3982 6.8252C15.5716 6.29785 16.3263 6.29785 16.4997 6.8252L17.4271 9.64644C17.5046 9.88227 17.7269 10.0419 17.9778 10.0419H20.9788C21.5398 10.0419 21.773 10.7515 21.3192 11.0774L18.8913 12.821C18.6883 12.9668 18.6034 13.2251 18.6809 13.461L19.6083 16.2822C19.7817 16.8096 19.171 17.2481 18.7172 16.9222L16.2893 15.1785C16.0864 15.0328 15.8115 15.0328 15.6086 15.1785L13.1807 16.9222C12.7268 17.2481 12.1162 16.8096 12.2896 16.2822L13.2169 13.461C13.2945 13.2251 13.2095 12.9668 13.0066 12.821L10.5787 11.0774C10.1249 10.7515 10.3581 10.0419 10.919 10.0419H13.9201C14.171 10.0419 14.3933 9.88227 14.4708 9.64644L15.3982 6.8252Z" fill="white"/>
<path d="M20.9788 9.27928C22.2878 9.27928 22.8321 10.9351 21.7732 11.6955L19.4588 13.3575L20.3425 16.0469C20.747 17.2774 19.3222 18.3006 18.2633 17.5401L15.9489 15.8778L13.6345 17.5401C12.5756 18.3006 11.1509 17.2774 11.5554 16.0469L12.4391 13.3575L10.125 11.6955C9.06613 10.9351 9.61016 9.27934 10.919 9.27928V10.0425C10.3581 10.0425 10.1248 10.7521 10.5786 11.0781L13.0064 12.8217C13.2094 12.9674 13.2943 13.2257 13.2168 13.4615L12.2898 16.2828C12.1164 16.8102 12.7268 17.2485 13.1806 16.9227L15.6085 15.179C15.8114 15.0333 16.0864 15.0333 16.2894 15.179L18.7172 16.9227C19.1568 17.2384 19.7436 16.8368 19.6224 16.332L19.6085 16.2828L18.681 13.4615C18.6035 13.2257 18.6884 12.9674 18.8914 12.8217L21.3193 11.0781C21.7731 10.7521 21.5398 10.0425 20.9788 10.0425V9.27928ZM14.7056 6.47808C15.1618 5.39661 16.736 5.39665 17.1923 6.47808L17.2341 6.58987L18.1182 9.27928H20.9788V10.0425H17.9779L17.9312 10.0406C17.7152 10.0234 17.5266 9.88804 17.4433 9.69031L17.4271 9.64708L16.4997 6.82576C16.3264 6.29841 15.5715 6.29841 15.3981 6.82576L14.4707 9.64708L14.4545 9.69031C14.3712 9.88805 14.1827 10.0235 13.9667 10.0406L13.9203 10.0425H10.919V9.27928H13.78L14.6641 6.58987L14.7056 6.47808Z" fill="white"/>
<path d="M8.84569 12.9525L8.87381 12.9249C9.01983 12.7961 9.2437 12.7949 9.3911 12.9281C9.5385 13.0613 9.5573 13.2818 9.44053 13.4371L9.4152 13.4672L6.4454 16.6773C6.30144 16.8329 6.05725 16.8438 5.89999 16.7017C5.74272 16.5596 5.73193 16.3182 5.87589 16.1626L8.84569 12.9525Z" fill="white"/>
<path d="M16.2021 18.2328L16.2303 18.2051C16.3763 18.0763 16.6001 18.0752 16.7475 18.2084C16.8949 18.3416 16.9137 18.5621 16.797 18.7174L16.7716 18.7475L13.8018 21.9576C13.6579 22.1132 13.4137 22.1241 13.2564 21.982C13.0992 21.8398 13.0884 21.5985 13.2323 21.4429L16.2021 18.2328Z" fill="white"/>
<path d="M9.755 17.5386C9.89897 17.3831 10.1432 17.3721 10.3004 17.5142C10.4576 17.6563 10.4683 17.8978 10.3245 18.0534L6.6827 21.9898C6.53874 22.1454 6.29456 22.1563 6.13729 22.0142C5.98003 21.8721 5.96924 21.6307 6.1132 21.4751L9.755 17.5386Z" fill="white"/>
</svg>
