<svg width="20" height="20" viewBox="0 0 20 20" fill="none" xmlns="http://www.w3.org/2000/svg">
<path d="M11.3982 2.8252C11.5716 2.29785 12.3263 2.29785 12.4997 2.8252L13.4271 5.64644C13.5046 5.88227 13.7269 6.04195 13.9778 6.04195H16.9788C17.5398 6.04195 17.773 6.75149 17.3192 7.07741L14.8913 8.82103C14.6883 8.96678 14.6034 9.22514 14.6809 9.46097L15.6083 12.2822C15.7817 12.8096 15.171 13.2481 14.7172 12.9222L12.2893 11.1785C12.0864 11.0328 11.8115 11.0328 11.6086 11.1785L9.18067 12.9222C8.72684 13.2481 8.11622 12.8096 8.28957 12.2822L9.21695 9.46097C9.29447 9.22514 9.20954 8.96678 9.00659 8.82103L6.57868 7.0774C6.12485 6.75149 6.35809 6.04195 6.91905 6.04195H9.92011C10.171 6.04195 10.3933 5.88227 10.4708 5.64644L11.3982 2.8252Z" fill="white"/>
<path d="M16.9788 5.27928C18.2878 5.27928 18.8321 6.93505 17.7732 7.69553L15.4588 9.35754L16.3425 12.0469C16.747 13.2774 15.3222 14.3006 14.2633 13.5401L11.9489 11.8778L9.63453 13.5401C8.57559 14.3006 7.1509 13.2774 7.55537 12.0469L8.43906 9.35754L6.12504 7.69553C5.06613 6.93506 5.61016 5.27934 6.919 5.27928V6.04246C6.35811 6.04253 6.12482 6.75213 6.57857 7.07805L9.00644 8.82167C9.2094 8.96743 9.29433 9.22567 9.21681 9.46151L8.28977 12.2828C8.11645 12.8102 8.7268 13.2485 9.18062 12.9227L11.6085 11.179C11.8114 11.0333 12.0864 11.0333 12.2894 11.179L14.7172 12.9227C15.1568 13.2384 15.7436 12.8368 15.6224 12.332L15.6085 12.2828L14.681 9.46151C14.6035 9.22567 14.6884 8.96743 14.8914 8.82167L17.3193 7.07805C17.7731 6.75213 17.5398 6.04246 16.9788 6.04246V5.27928ZM10.7056 2.47808C11.1618 1.39661 12.736 1.39665 13.1923 2.47808L13.2341 2.58987L14.1182 5.27928H16.9788V6.04246H13.9779L13.9312 6.0406C13.7152 6.02344 13.5266 5.88804 13.4433 5.69031L13.4271 5.64708L12.4997 2.82576C12.3264 2.29841 11.5715 2.29841 11.3981 2.82576L10.4707 5.64708L10.4545 5.69031C10.3712 5.88805 10.1827 6.02347 9.96666 6.0406L9.92029 6.04246H6.919V5.27928H9.78005L10.6641 2.58987L10.7056 2.47808Z" fill="white"/>
<path d="M4.84569 8.9525L4.87381 8.92487C5.01983 8.79607 5.2437 8.7949 5.3911 8.92812C5.5385 9.06135 5.5573 9.28185 5.44053 9.43709L5.4152 9.46724L2.4454 12.6773C2.30144 12.8329 2.05725 12.8438 1.89999 12.7017C1.74272 12.5596 1.73193 12.3182 1.87589 12.1626L4.84569 8.9525Z" fill="white"/>
<path d="M12.2021 14.2328L12.2303 14.2051C12.3763 14.0763 12.6001 14.0752 12.7475 14.2084C12.8949 14.3416 12.9137 14.5621 12.797 14.7174L12.7716 14.7475L9.80184 17.9576C9.65788 18.1132 9.4137 18.1241 9.25643 17.982C9.09917 17.8398 9.08838 17.5985 9.23234 17.4429L12.2021 14.2328Z" fill="white"/>
<path d="M5.755 13.5386C5.89897 13.3831 6.14319 13.3721 6.30041 13.5142C6.45763 13.6563 6.46834 13.8978 6.32451 14.0534L2.6827 17.9898C2.53874 18.1454 2.29456 18.1563 2.13729 18.0142C1.98003 17.8721 1.96924 17.6307 2.1132 17.4751L5.755 13.5386Z" fill="white"/>
</svg>
