<svg width="24" height="24" viewBox="0 0 24 24" fill="none" xmlns="http://www.w3.org/2000/svg">
<path d="M6.53373 13.4639C6.69248 13.4496 6.84827 13.5107 6.94454 13.6253C8.27718 15.2106 10.3658 16.2496 12.7267 16.3081C12.9264 16.313 13.0997 16.4342 13.1545 16.6071L14.6994 21.4749C14.7388 21.5992 14.7112 21.7331 14.6248 21.8362C14.5383 21.9395 14.4028 22 14.2591 22H2.45781C2.30041 22 2.15401 21.9272 2.07024 21.8073C1.98648 21.6873 1.97699 21.537 2.04521 21.4093L6.16673 13.6953L6.19578 13.649C6.27088 13.5452 6.39474 13.4764 6.53373 13.4639ZM3.186 21.1759H13.6521L12.3638 17.1165C10.1123 16.9801 8.10385 16.0486 6.68214 14.6313L3.186 21.1759Z" fill="#008BF9"/>
<path d="M7.28429 3.71838C9.34533 5.57984 15.1604 10.7609 19.622 14.7309C18.021 16.5986 15.5104 17.8024 12.687 17.8024C7.85161 17.8024 3.93175 14.2737 3.93164 9.92098C3.93164 7.40338 5.24293 5.16127 7.28429 3.71838Z" fill="#D2EDFE"/>
<path d="M18.3671 8.56556C18.2556 8.79498 17.958 8.89985 17.7031 8.7995C17.4482 8.69915 17.3318 8.43122 17.4432 8.20179C17.8815 7.29967 17.4252 6.24843 16.4232 5.85367C15.8385 5.62345 15.1973 5.66759 14.6761 5.92453C14.4321 6.04486 14.1255 5.9641 13.9918 5.74449C13.8584 5.52498 13.9476 5.24986 14.1913 5.12951C14.9744 4.74325 15.9436 4.67525 16.8268 5.02303C18.3386 5.61851 19.0284 7.20461 18.3671 8.56556Z" fill="#008BF9"/>
<path d="M20.1356 8.90717C20.0242 9.1366 19.7265 9.24146 19.4717 9.14111C19.2168 9.04076 19.1003 8.77283 19.2118 8.5434C20.0165 6.88716 19.1654 4.94508 17.2976 4.20965C16.2081 3.78075 15.017 3.85862 14.0532 4.32892C13.8089 4.44805 13.5037 4.36703 13.371 4.1473C13.2385 3.92723 13.3289 3.6516 13.5733 3.53219C14.8001 2.93356 16.3173 2.83297 17.7017 3.378C20.0711 4.31093 21.1669 6.78478 20.1356 8.90717Z" fill="#008BF9"/>
<path d="M3.93164 9.92098C3.93164 7.40338 5.24293 5.16127 7.28429 3.71838C9.34533 5.57984 15.1604 10.7609 19.622 14.7309C18.021 16.5986 15.5104 17.8024 12.687 17.8024V16.9783C14.9251 16.9783 16.9431 16.1336 18.3726 14.7775C14.394 11.2369 9.56098 6.9289 7.24137 4.8439C5.7641 6.12811 4.84714 7.92801 4.84714 9.92098C4.84724 13.8185 8.35725 16.9783 12.687 16.9783V17.8024C7.85161 17.8024 3.93175 14.2737 3.93164 9.92098Z" fill="#008BF9"/>
<path d="M15.814 6.87203C15.9949 6.71307 16.2847 6.71643 16.4613 6.87927C16.6379 7.04212 16.6346 7.30298 16.4537 7.46195L13.81 9.785C13.6291 9.94383 13.3393 9.94055 13.1627 9.77776C12.9862 9.61491 12.9899 9.35402 13.1708 9.19508L15.814 6.87203Z" fill="#008BF9"/>
</svg>
