<svg width="24" height="24" viewBox="0 0 24 24" fill="none" xmlns="http://www.w3.org/2000/svg">
<path d="M21.9995 8.94757L11.9614 14.1283L2.00049 8.73383L11.8735 3.2771L21.9995 8.94757Z" fill="#D2EDFE"/>
<path d="M21.9995 8.94757L11.9614 14.1283L2.00049 8.73383L11.8735 3.2771L21.9995 8.94757ZM3.74756 8.72552L11.9692 13.1779L20.2271 8.91644L11.8706 4.23584L3.74756 8.72552Z" fill="#008BF9"/>
<path d="M12.167 13.3739L17.1968 10.5282V15.6217C17.1968 17.2082 16.1313 18.4945 14.8171 18.4946H9.19849C7.88423 18.4946 6.81841 17.2083 6.81836 15.6217V10.4478L12.167 13.3739Z" fill="#D2EDFE"/>
<path d="M14.8171 17.5369V18.4946H9.19849V17.5369H14.8171ZM16.4036 15.6217V12.0343L12.1724 14.4284L7.61161 11.9328V15.6217C7.61166 16.6792 8.3222 17.5369 9.19849 17.5369V18.4946C7.88423 18.4946 6.81841 17.2083 6.81836 15.6217V10.4478L12.167 13.3739L17.1968 10.5282V15.6217C17.1968 17.2082 16.1313 18.4945 14.8171 18.4946V17.5369C15.6658 17.5369 16.3591 16.7322 16.4016 15.7203L16.4036 15.6217Z" fill="#008BF9"/>
<path d="M4.35254 16.296V10.1228C4.35254 9.85835 4.53011 9.64398 4.74916 9.64398C4.96821 9.64398 5.14579 9.85835 5.14579 10.1228V16.296C5.14579 16.5604 4.96821 16.7748 4.74916 16.7748C4.53011 16.7748 4.35254 16.5604 4.35254 16.296Z" fill="#008BF9"/>
<path d="M5.77155 18.0855C5.77155 17.4039 5.31398 16.8512 4.74939 16.8511C4.18473 16.8511 3.72684 17.4038 3.72684 18.0855C3.72692 18.7671 4.18478 19.3195 4.74939 19.3195V20.2771L4.65566 20.2743C3.72736 20.2174 2.983 19.3189 2.93592 18.1982L2.93359 18.0855C2.93359 16.875 3.74663 15.8934 4.74939 15.8934L4.84274 15.8962C5.80204 15.955 6.5648 16.9128 6.5648 18.0855L6.56247 18.1982C6.51382 19.3562 5.72072 20.277 4.74939 20.2771V19.3195C5.31393 19.3194 5.77147 18.767 5.77155 18.0855Z" fill="#008BF9"/>
</svg>
