<svg width="24" height="24" viewBox="0 0 24 24" fill="none" xmlns="http://www.w3.org/2000/svg">
<path d="M10.1619 18.8415C10.1619 20.862 8.53702 22.4999 6.53261 22.4999C4.52821 22.4999 2.90332 20.862 2.90332 18.8415C2.90332 16.821 4.52821 15.1831 6.53261 15.1831C8.53702 15.1831 10.1619 16.821 10.1619 18.8415Z" fill="#D2EDFE"/>
<path d="M9.31146 18.8416C9.31146 17.2947 8.06727 16.0406 6.53272 16.0406C4.99812 16.0406 3.75397 17.2947 3.75397 18.8416C3.75403 20.3885 4.99815 21.6426 6.53272 21.6426V22.5001L6.34581 22.4951C4.49002 22.4002 3.00187 20.9003 2.90789 19.0296L2.90332 18.8416C2.90332 16.8211 4.52831 15.1831 6.53272 15.1831L6.71921 15.1877C8.6369 15.2856 10.1621 16.8842 10.1621 18.8416L10.1571 19.0296C10.06 20.9626 8.47449 22.5001 6.53272 22.5001V21.6426C8.06724 21.6426 9.31141 20.3884 9.31146 18.8416Z" fill="#008BF9"/>
<path d="M14.3182 13.4255V7.88629C14.3118 7.43525 14.434 6.77152 14.8345 6.20692C15.2533 5.61659 15.9534 5.16946 17.0131 5.16941H20.0481L18.0677 3.17268C17.9016 3.00525 17.9016 2.73385 18.0677 2.56642C18.2338 2.39914 18.5031 2.39903 18.6691 2.56642L21.3756 5.29502C21.5417 5.46245 21.5417 5.73385 21.3756 5.90128L18.6691 8.62988C18.5031 8.79726 18.2338 8.79716 18.0677 8.62988C17.9016 8.46245 17.9016 8.19105 18.0677 8.02362L20.0481 6.02689H17.0131C16.2252 6.02693 15.784 6.34264 15.5265 6.70558C15.253 7.0912 15.1635 7.56727 15.1689 7.87875V13.4255C15.1689 15.7072 14.9253 17.1633 14.5421 18.0567C14.3488 18.5074 14.1089 18.8401 13.8227 19.0557C13.5386 19.2696 13.2304 19.3501 12.9326 19.3354V19.3358H9.68408V18.4783H12.9475L12.9625 18.4791C13.0736 18.487 13.1896 18.4622 13.3139 18.3686C13.4456 18.2694 13.6064 18.0772 13.7612 17.7163C14.0744 16.986 14.3182 15.6717 14.3182 13.4255Z" fill="#008BF9"/>
<path d="M7.24417 1.5L8.52552 4.99059L11.9883 6.28222L8.52552 7.57385L7.24417 11.0644L5.96281 7.57385L2.5 6.28222L5.96281 4.99059L7.24417 1.5Z" fill="#D2EDFE"/>
<path d="M8.5256 4.99061L11.9884 6.28227L8.5256 7.57393L7.24422 11.0645L5.96284 7.57393L2.5 6.28227L5.96284 4.99061L7.24422 1.5L8.5256 4.99061ZM6.62492 5.658L4.95144 6.28227L6.62492 6.90654L7.24422 8.59302L7.86352 6.90654L9.53658 6.28227L7.86352 5.658L7.24422 3.97111L6.62492 5.658Z" fill="#008BF9"/>
</svg>
